<svg width="305.328369" height="289.936707" viewBox="0 0 305.328 289.937" fill="none" xmlns="http://www.w3.org/2000/svg" xmlns:xlink="http://www.w3.org/1999/xlink">
	<desc>
			Created with Pixso.
	</desc>
	<defs/>
	<path id="Path 334" d="M42.44 211.04C42.44 211.04 42.24 196.57 36.23 184.76C30.22 172.95 21.13 165.05 12.08 163.43C3.03 161.8 -5.17 169.46 4.02 176.19C13.21 182.93 29.95 190.53 35.79 212.87L42.44 211.04Z" fill="#7D97FF" fill-opacity="1.000000" fill-rule="nonzero"/>
	<g opacity="0.150000">
		<path id="Path 335" d="M42.44 211.04C42.44 211.04 42.24 196.57 36.23 184.76C30.22 172.95 21.13 165.05 12.08 163.43C3.03 161.8 -5.17 169.46 4.02 176.19C13.21 182.93 29.95 190.53 35.79 212.87L42.44 211.04Z" fill="#000000" fill-opacity="1.000000" fill-rule="nonzero"/>
	</g>
	<path id="Path 336" d="M40.14 207.05C40.17 207.06 40.2 207.06 40.23 207.05C40.36 207.02 40.46 206.94 40.52 206.82C40.59 206.71 40.6 206.58 40.57 206.46L40.57 206.45C33.3 181.79 15.97 170.07 7.81 167.31C7.75 167.3 7.68 167.3 7.62 167.3C7.56 167.31 7.49 167.33 7.44 167.37C7.38 167.4 7.34 167.44 7.3 167.5C7.26 167.55 7.23 167.61 7.22 167.67C7.19 167.78 7.2 167.9 7.25 168C7.3 168.11 7.39 168.19 7.5 168.24C15.49 170.95 32.48 182.46 39.63 206.72C39.67 206.82 39.73 206.91 39.83 206.97C39.92 207.03 40.03 207.06 40.14 207.05Z" fill="#FFFFFF" fill-opacity="1.000000" fill-rule="nonzero"/>
	<path id="Path 337" d="M43.36 224.71C39.97 226.65 38.07 227.9 31.91 228.41C27.53 228.71 23.12 228.11 18.97 226.66C17.83 226.25 16.06 225.35 17.05 224.25C17.57 223.68 23.61 222.72 25.78 220.18C23.01 220.99 20.17 221.49 17.3 221.68C14.66 221.83 12.05 221.03 9.95 219.43C7.95 217.76 6.87 215.27 5.88 212.87C5.54 212.05 5.2 211.05 5.74 210.34C6.13 209.93 6.64 209.65 7.2 209.56L14.07 207.64C15.57 207.33 14.51 206.34 13.95 206.26C13.12 206.14 12.28 206.1 11.45 206.15C8.83 206.29 5.94 206.78 3.8 205.26C2.54 204.27 1.7 202.84 1.44 201.26C1.34 200.72 0.88 193.64 1.19 193.56C2.91 193.13 4.66 192.82 6.43 192.65C8.09 192.45 9.71 192.38 11.36 192.16C13.23 191.91 15.11 191.78 17 191.79C17.64 191.74 18.28 191.86 18.86 192.16C19.2 192.43 19.48 192.78 19.68 193.17C19.88 193.57 19.98 194 19.99 194.44C20 195.32 20.12 196.19 20.35 197.04C21.15 196.97 21.41 195.92 21.39 195.12C21.37 194.31 21.39 193.3 22.11 192.95C22.51 192.82 22.93 192.82 23.32 192.95C25.89 193.48 28.4 194.31 30.77 195.43C31.88 195.88 32.88 196.56 33.71 197.43C34.77 198.86 35.3 200.61 35.21 202.39C35.22 204.16 34.94 205.92 35.06 207.68C36.79 205.75 37.98 203.39 38.51 200.86C41.48 202.76 43.25 206.7 43.79 212.07C44.14 216.01 44.07 219.97 43.57 223.89C43.5 223.99 43.45 224.62 43.36 224.71Z" fill="#7D97FF" fill-opacity="1.000000" fill-rule="nonzero"/>
	<g opacity="0.300000">
		<path id="Path 338" d="M43.36 224.71C39.97 226.65 38.07 227.9 31.91 228.41C27.53 228.71 23.12 228.11 18.97 226.66C17.83 226.25 16.06 225.35 17.05 224.25C17.57 223.68 23.61 222.72 25.78 220.18C23.01 220.99 20.17 221.49 17.3 221.68C14.66 221.83 12.05 221.03 9.95 219.43C7.95 217.76 6.87 215.27 5.88 212.87C5.54 212.05 5.2 211.05 5.74 210.34C6.13 209.93 6.64 209.65 7.2 209.56L14.07 207.64C15.57 207.33 14.51 206.34 13.95 206.26C13.12 206.14 12.28 206.1 11.45 206.15C8.83 206.29 5.94 206.78 3.8 205.26C2.54 204.27 1.7 202.84 1.44 201.26C1.34 200.72 0.88 193.64 1.19 193.56C2.91 193.13 4.66 192.82 6.43 192.65C8.09 192.45 9.71 192.38 11.36 192.16C13.23 191.91 15.11 191.78 17 191.79C17.64 191.74 18.28 191.86 18.86 192.16C19.2 192.43 19.48 192.78 19.68 193.17C19.88 193.57 19.98 194 19.99 194.44C20 195.32 20.12 196.19 20.35 197.04C21.15 196.97 21.41 195.92 21.39 195.12C21.37 194.31 21.39 193.3 22.11 192.95C22.51 192.82 22.93 192.82 23.32 192.95C25.89 193.48 28.4 194.31 30.77 195.43C31.88 195.88 32.88 196.56 33.71 197.43C34.77 198.86 35.3 200.61 35.21 202.39C35.22 204.16 34.94 205.92 35.06 207.68C36.79 205.75 37.98 203.39 38.51 200.86C41.48 202.76 43.25 206.7 43.79 212.07C44.14 216.01 44.07 219.97 43.57 223.89C43.5 223.99 43.45 224.62 43.36 224.71Z" fill="#000000" fill-opacity="1.000000" fill-rule="nonzero"/>
	</g>
	<path id="Path 339" d="M42.77 224.04C42.69 224.04 42.62 224.02 42.56 223.98C42.5 223.94 42.44 223.89 42.41 223.82C32.8 205.36 11.53 197.59 6.37 196.52C6.26 196.5 6.17 196.43 6.11 196.34C6.05 196.25 6.03 196.14 6.05 196.04C6.07 195.93 6.14 195.84 6.23 195.78C6.32 195.72 6.43 195.7 6.53 195.72C11.78 196.81 33.37 204.71 43.12 223.45C43.15 223.5 43.16 223.55 43.17 223.6C43.17 223.65 43.16 223.71 43.15 223.76C43.13 223.81 43.11 223.85 43.08 223.9C43.04 223.94 43 223.97 42.95 223.99C42.9 224.02 42.83 224.04 42.77 224.04Z" fill="#FFFFFF" fill-opacity="1.000000" fill-rule="nonzero"/>
	<path id="Path 340" d="M14.87 213.38C14.77 213.38 14.67 213.34 14.6 213.27C14.52 213.2 14.48 213.1 14.47 213C14.46 212.9 14.49 212.79 14.56 212.71C14.63 212.63 14.72 212.58 14.83 212.57L14.84 212.57C25.45 211.74 28.88 207.58 28.91 207.54C28.95 207.5 28.99 207.47 29.04 207.45C29.09 207.43 29.14 207.41 29.19 207.41C29.25 207.41 29.3 207.42 29.35 207.44C29.4 207.45 29.45 207.48 29.49 207.52C29.56 207.58 29.6 207.67 29.61 207.77C29.62 207.86 29.6 207.96 29.55 208.04C29.41 208.23 25.91 212.51 14.91 213.37L14.87 213.38Z" fill="#FFFFFF" fill-opacity="1.000000" fill-rule="nonzero"/>
	<path id="Path 341" d="M299.55 161.91C294.85 167.05 286.23 175.51 281.21 183.69C281.2 183.7 281.19 183.72 281.18 183.75C279.31 186.54 278.03 189.69 277.43 193L277.08 198.23L274.93 196.99L274.57 196.78L273.69 196.27C273.06 195.9 272.54 195.39 272.17 194.76C271.8 194.14 271.59 193.43 271.57 192.71C271.25 182.31 273.43 171.98 277.93 162.59C282.43 153.64 290.87 144.52 298.21 145.41C305.06 146.24 306.14 154.74 299.55 161.91Z" fill="#7D97FF" fill-opacity="1.000000" fill-rule="nonzero"/>
	<g opacity="0.150000">
		<path id="Path 342" d="M299.55 161.91C294.85 167.05 286.23 175.51 281.21 183.69C281.2 183.7 281.19 183.72 281.18 183.75C279.31 186.54 278.03 189.69 277.43 193L277.08 198.23L274.93 196.99L274.57 196.78L273.69 196.27C273.06 195.9 272.54 195.39 272.17 194.76C271.8 194.14 271.59 193.43 271.57 192.71C271.25 182.31 273.43 171.98 277.93 162.59C282.43 153.64 290.87 144.52 298.21 145.41C305.06 146.24 306.14 154.74 299.55 161.91Z" fill="#000000" fill-opacity="1.000000" fill-rule="nonzero"/>
	</g>
	<path id="Path 343" d="M296.12 150.35C287.14 156.03 274.31 175.82 274.6 196.77L273.71 196.27C273.64 175.18 286.59 155.34 295.64 149.61C295.74 149.54 295.86 149.52 295.98 149.55C296.09 149.57 296.19 149.64 296.25 149.74C296.32 149.84 296.34 149.96 296.31 150.07C296.29 150.19 296.22 150.29 296.12 150.35L296.12 150.35Z" fill="#FFFFFF" fill-opacity="1.000000" fill-rule="nonzero"/>
	<path id="Path 344" d="M304.91 178.7C303.34 182.95 294.41 186.63 287.82 192.76C286.18 194.28 284.67 195.92 283.29 197.67C282.68 198.46 281.79 199 280.81 199.19C279.83 199.38 278.81 199.21 277.95 198.7L277.16 198.25L277.11 198.25L274.96 197.01C276.28 192.28 278.39 187.8 281.21 183.77C281.21 183.75 281.23 183.73 281.24 183.71C285.6 177.38 290.99 172.81 294.75 171.77C302.14 169.71 306.78 173.6 304.91 178.7Z" fill="#7D97FF" fill-opacity="1.000000" fill-rule="nonzero"/>
	<g opacity="0.300000">
		<path id="Path 345" d="M304.91 178.7C303.34 182.95 294.41 186.63 287.82 192.76C286.18 194.28 284.67 195.92 283.29 197.67C282.68 198.46 281.79 199 280.81 199.19C279.83 199.38 278.81 199.21 277.95 198.7L277.16 198.25L277.11 198.25L274.96 197.01C276.28 192.28 278.39 187.8 281.21 183.77C281.21 183.75 281.23 183.73 281.24 183.71C285.6 177.38 290.99 172.81 294.75 171.77C302.14 169.71 306.78 173.6 304.91 178.7Z" fill="#000000" fill-opacity="1.000000" fill-rule="nonzero"/>
	</g>
	<path id="Path 346" d="M298.63 176.15C293.21 177.67 282.77 184.28 277.95 198.71L277.16 198.26C282.05 183.63 292.45 176.97 298.39 175.3C298.5 175.26 298.62 175.27 298.73 175.32C298.83 175.38 298.91 175.47 298.95 175.58C298.97 175.63 298.97 175.69 298.97 175.75C298.97 175.8 298.95 175.86 298.93 175.91C298.9 175.97 298.87 176.01 298.82 176.05C298.78 176.09 298.73 176.12 298.67 176.14L298.63 176.15L298.63 176.15Z" fill="#FFFFFF" fill-opacity="1.000000" fill-rule="nonzero"/>
	<path id="Path 347" d="M37.42 233.06C37.52 234.38 37.92 235.65 38.61 236.79C39.29 237.92 40.23 238.88 41.35 239.58L126.92 288.99C128.13 289.61 129.48 289.93 130.84 289.93C132.21 289.93 133.56 289.61 134.77 288.99L285.44 202C286.56 201.3 287.5 200.34 288.18 199.21C288.86 198.08 289.27 196.8 289.37 195.48C289.27 194.16 288.86 192.88 288.18 191.74C287.5 190.61 286.56 189.65 285.44 188.95L199.88 139.55C198.66 138.93 197.31 138.61 195.95 138.61C194.58 138.61 193.24 138.93 192.02 139.55L41.35 226.53C40.23 227.23 39.29 228.19 38.61 229.32C37.92 230.46 37.52 231.74 37.42 233.06Z" fill="#455A64" fill-opacity="1.000000" fill-rule="nonzero"/>
	<path id="Path 348" d="M289.39 195.48C289.29 196.8 288.89 198.08 288.2 199.21C287.52 200.35 286.58 201.3 285.46 202.01L134.77 288.99C133.56 289.63 132.21 289.95 130.84 289.93L130.84 281.41C132.21 281.44 133.56 281.11 134.77 280.47L285.44 193.48C287.34 192.39 287.57 190.69 286.15 189.42C287.08 190.15 287.85 191.07 288.4 192.11C288.96 193.15 289.3 194.3 289.39 195.48Z" fill="#37474F" fill-opacity="1.000000" fill-rule="nonzero"/>
	<path id="Path 349" d="M130.85 281.42L130.85 289.92C129.48 289.95 128.13 289.63 126.92 288.99L41.35 239.58C40.23 238.87 39.29 237.92 38.61 236.78C37.92 235.65 37.52 234.37 37.42 233.05C37.51 231.81 37.88 230.61 38.49 229.52C39.1 228.44 39.94 227.5 40.95 226.78C39.19 228.04 39.32 229.9 41.35 231.07L126.91 280.48C128.12 281.13 129.48 281.45 130.85 281.42Z" fill="#263238" fill-opacity="1.000000" fill-rule="nonzero"/>
	<path id="Path 350" d="M33.73 226.67C31.81 225.31 31.81 223.51 31.81 221L31.81 94.39C31.89 93.03 32.28 91.71 32.97 90.53C33.65 89.35 34.6 88.35 35.74 87.61L186.41 0.6C188.58 -0.65 190.58 0.25 192.62 1.43C194.66 2.6 195.95 3.63 195.95 6.13L195.95 132.74C195.87 134.09 195.47 135.41 194.79 136.59C194.11 137.77 193.16 138.77 192.02 139.51L41.35 226.53C38.06 228.78 35.82 228.14 33.73 226.67Z" fill="#37474F" fill-opacity="1.000000" fill-rule="nonzero"/>
	<path id="Path 351" d="M41.35 226.53C38.06 228.74 35.82 228.14 33.73 226.67C31.82 225.31 31.81 223.51 31.81 221L31.81 94.39C31.86 93.03 32.25 91.7 32.96 90.53L38.57 93.78C37.86 94.95 37.46 96.28 37.42 97.65L37.42 224.26C37.42 226.75 39.18 227.78 41.35 226.53Z" fill="#263238" fill-opacity="1.000000" fill-rule="nonzero"/>
	<path id="Path 352" d="M195.95 6.12C195.95 3.62 194.19 2.6 192.02 3.85L41.35 90.84C40.19 91.57 39.23 92.58 38.57 93.78L32.96 90.52C33.63 89.32 34.59 88.31 35.75 87.58L186.41 0.6C188.58 -0.65 190.58 0.25 192.61 1.43C194.65 2.6 195.95 3.62 195.95 6.12Z" fill="#455A64" fill-opacity="1.000000" fill-rule="nonzero"/>
	<path id="Path 353" d="M43.45 95.38L188.73 11.53C190.03 10.77 191.08 11.38 191.08 12.88L191.08 129.02C191.04 129.84 190.8 130.63 190.39 131.34C189.98 132.04 189.41 132.64 188.73 133.09L43.45 216.95C42.15 217.7 41.09 217.09 41.09 215.6L41.09 99.46C41.14 98.64 41.37 97.84 41.78 97.13C42.19 96.42 42.76 95.82 43.45 95.38Z" fill="#263238" fill-opacity="1.000000" fill-rule="nonzero"/>
	<path id="Path 354" d="M43.45 95.38C42.77 95.82 42.2 96.42 41.79 97.13C41.38 97.83 41.14 98.63 41.09 99.44L41.09 214.89L185.5 131.55C186.18 131.11 186.75 130.5 187.16 129.8C187.57 129.09 187.81 128.3 187.86 127.49L187.86 12.02L43.45 95.38Z" fill="#7D97FF" fill-opacity="1.000000" fill-rule="nonzero"/>
	<g opacity="0.650000">
		<path id="Path 355" d="M43.45 95.38C42.77 95.82 42.2 96.42 41.79 97.13C41.38 97.83 41.14 98.63 41.09 99.44L41.09 214.89L185.5 131.55C186.18 131.11 186.75 130.5 187.16 129.8C187.57 129.09 187.81 128.3 187.86 127.49L187.86 12.02L43.45 95.38Z" fill="#FFFFFF" fill-opacity="1.000000" fill-rule="nonzero"/>
	</g>
	<path id="Path 356" d="M52.26 226.75L192.08 146.02C192.69 145.71 193.36 145.55 194.04 145.55C194.73 145.55 195.4 145.71 196.01 146.02L200.07 148.16C200.31 148.24 200.52 148.39 200.66 148.59C200.81 148.8 200.88 149.04 200.88 149.29C200.88 149.54 200.81 149.78 200.66 149.99C200.52 150.19 200.31 150.34 200.07 150.42L60.21 231.15C59.6 231.46 58.92 231.63 58.24 231.63C57.56 231.63 56.88 231.46 56.28 231.15L52.21 229.03C51.14 228.4 51.14 227.39 52.26 226.75Z" fill="#37474F" fill-opacity="1.000000" fill-rule="nonzero"/>
	<path id="Path 357" d="M63.19 233.29L203.04 152.54C203.58 152.23 204.19 152.06 204.81 152.02C205.43 151.99 206.06 152.1 206.63 152.34L243.03 173.34C243.92 173.86 243.78 174.79 242.69 175.41L103.01 256.04C102.46 256.36 101.86 256.54 101.23 256.57C100.61 256.6 99.98 256.49 99.41 256.25L62.85 235.35C61.96 234.84 62.11 233.91 63.19 233.29Z" fill="#263238" fill-opacity="1.000000" fill-rule="nonzero"/>
	<path id="Path 358" d="M183.22 186.1L187.6 183.57C187.78 183.46 187.81 183.31 187.66 183.22L183.8 180.98C183.7 180.94 183.59 180.92 183.49 180.93C183.38 180.94 183.28 180.97 183.18 181.02L178.81 183.55C178.62 183.66 178.6 183.81 178.75 183.9L182.61 186.13C182.71 186.18 182.81 186.2 182.92 186.19C183.03 186.18 183.13 186.15 183.22 186.1ZM177.12 177.51L172.74 180.04C172.56 180.15 172.53 180.3 172.68 180.39L176.55 182.62C176.65 182.66 176.75 182.68 176.86 182.68C176.96 182.67 177.07 182.64 177.16 182.59L181.54 180.06C181.73 179.95 181.75 179.8 181.6 179.71L177.73 177.48C177.63 177.44 177.52 177.42 177.42 177.43C177.31 177.44 177.2 177.48 177.11 177.54L177.12 177.51ZM162.96 185.71L155.55 189.99C155.37 190.1 155.34 190.25 155.49 190.34L159.35 192.57C159.45 192.61 159.56 192.63 159.67 192.63C159.77 192.62 159.88 192.59 159.97 192.54L167.38 188.26C167.57 188.15 167.59 187.99 167.44 187.9L163.57 185.67C163.48 185.63 163.37 185.61 163.27 185.62C163.16 185.63 163.06 185.66 162.97 185.71L162.96 185.71ZM170.71 181.24L166.33 183.76C166.14 183.87 166.11 184.03 166.27 184.12L170.13 186.35C170.23 186.39 170.34 186.41 170.44 186.41C170.55 186.4 170.65 186.37 170.74 186.32L175.13 183.79C175.31 183.68 175.34 183.52 175.19 183.43L171.33 181.2C171.23 181.16 171.12 181.14 171.01 181.14C170.91 181.15 170.8 181.18 170.71 181.23L170.71 181.24ZM153.53 191.15L149.14 193.68C148.95 193.79 148.93 193.95 149.08 194.03L152.94 196.27C153.04 196.31 153.15 196.33 153.25 196.32C153.36 196.31 153.46 196.28 153.55 196.23L157.93 193.7C158.12 193.59 158.15 193.44 157.99 193.35L154.13 191.12C154.03 191.08 153.93 191.06 153.83 191.07C153.72 191.07 153.62 191.1 153.53 191.15L153.53 191.15ZM147.11 194.85L142.73 197.38C142.54 197.48 142.52 197.65 142.67 197.73L146.53 199.96C146.63 200.01 146.73 200.04 146.84 200.04C146.95 200.04 147.05 200.01 147.14 199.96L151.53 197.44C151.71 197.33 151.74 197.16 151.59 197.08L147.73 194.85C147.63 194.8 147.53 194.77 147.42 194.78C147.31 194.78 147.21 194.8 147.11 194.85L147.11 194.85ZM163.37 204.61L167.75 202.08C167.94 201.98 167.97 201.81 167.81 201.72L163.95 199.5C163.85 199.45 163.74 199.43 163.64 199.44C163.53 199.45 163.43 199.48 163.34 199.53L158.96 202.06C158.77 202.16 158.74 202.33 158.9 202.42L162.76 204.64C162.86 204.69 162.97 204.71 163.07 204.7C163.18 204.69 163.28 204.66 163.37 204.61L163.37 204.61ZM156.97 208.3L161.33 205.75C161.52 205.64 161.54 205.49 161.39 205.4L157.53 203.17C157.44 203.12 157.33 203.09 157.22 203.09C157.12 203.09 157.01 203.12 156.92 203.17L152.53 205.75C152.34 205.86 152.32 206.01 152.47 206.1L156.33 208.33C156.43 208.38 156.53 208.4 156.64 208.4C156.75 208.39 156.86 208.36 156.96 208.3L156.97 208.3ZM150.57 212L154.95 209.47C155.14 209.36 155.17 209.21 155.01 209.12L151.15 206.89C151.05 206.85 150.94 206.83 150.84 206.83C150.73 206.84 150.63 206.87 150.54 206.92L146.15 209.45C145.97 209.56 145.94 209.71 146.1 209.8L149.96 212.03C150.06 212.07 150.16 212.09 150.27 212.08C150.37 212.08 150.47 212.05 150.56 212L150.57 212ZM144.17 215.7L148.56 213.17C148.74 213.06 148.77 212.9 148.62 212.81L144.75 210.58C144.66 210.54 144.55 210.52 144.44 210.52C144.33 210.53 144.23 210.56 144.14 210.62L139.76 213.14C139.57 213.25 139.54 213.41 139.7 213.5L143.56 215.73C143.66 215.77 143.76 215.79 143.87 215.78C143.97 215.78 144.07 215.75 144.16 215.7L144.17 215.7ZM176.83 189.82L181.21 187.29C181.4 187.19 181.43 187.03 181.27 186.94L177.4 184.74C177.3 184.7 177.19 184.68 177.09 184.69C176.98 184.69 176.88 184.72 176.79 184.78L172.4 187.3C172.22 187.41 172.19 187.57 172.34 187.66L176.2 189.88C176.31 189.92 176.41 189.94 176.52 189.93C176.63 189.91 176.73 189.88 176.82 189.82L176.83 189.82ZM169.77 200.91L179.54 195.28C179.73 195.17 179.75 195.01 179.6 194.92L169.67 189.18C169.57 189.14 169.46 189.12 169.35 189.13C169.25 189.13 169.14 189.16 169.05 189.22L164 192.14C163.81 192.25 163.78 192.4 163.94 192.49L169.46 195.67C169.61 195.76 169.58 195.93 169.4 196.03L165.34 198.36C165.15 198.47 165.13 198.63 165.28 198.72L169.14 200.95C169.24 200.99 169.34 201.01 169.45 201C169.56 201 169.67 200.97 169.76 200.91L169.77 200.91ZM140.75 198.55L136.37 201.07C136.18 201.18 136.16 201.34 136.3 201.43L140.17 203.66C140.26 203.7 140.37 203.72 140.48 203.71C140.59 203.71 140.69 203.68 140.78 203.62L145.16 201.09C145.35 200.99 145.38 200.83 145.22 200.74L141.36 198.51C141.26 198.47 141.15 198.45 141.04 198.45C140.94 198.46 140.83 198.49 140.74 198.55L140.75 198.55ZM134.35 202.24L129.97 204.77C129.78 204.88 129.75 205.04 129.91 205.13L133.77 207.36C133.87 207.4 133.98 207.42 134.08 207.41C134.19 207.4 134.29 207.37 134.38 207.31L138.77 204.79C138.95 204.69 138.98 204.52 138.83 204.44L134.92 202.21C134.83 202.17 134.72 202.15 134.62 202.16C134.52 202.16 134.42 202.19 134.34 202.24L134.35 202.24ZM98.75 241.59C98.84 241.64 98.95 241.66 99.05 241.66C99.16 241.66 99.26 241.64 99.36 241.59L103.74 239.06C103.93 238.96 103.95 238.8 103.8 238.71L99.94 236.48C99.84 236.44 99.74 236.42 99.63 236.43C99.52 236.43 99.42 236.46 99.32 236.52L94.94 239.01C94.76 239.12 94.73 239.27 94.88 239.36L98.75 241.59ZM83.17 231.8L78.78 234.33C78.6 234.44 78.57 234.59 78.72 234.68L82.58 236.91C82.68 236.95 82.79 236.97 82.89 236.97C83 236.96 83.11 236.93 83.2 236.87L87.58 234.35C87.77 234.24 87.79 234.08 87.64 234L83.77 231.77C83.67 231.72 83.56 231.7 83.45 231.7C83.34 231.71 83.23 231.74 83.14 231.8L83.17 231.8ZM91.02 239.06C91.12 239.1 91.22 239.12 91.33 239.11C91.43 239.11 91.54 239.08 91.63 239.02L96.01 236.5C96.19 236.39 96.22 236.23 96.07 236.14L92.21 233.91C92.11 233.87 92 233.85 91.9 233.85C91.79 233.86 91.69 233.89 91.59 233.95L87.22 236.48C87.03 236.58 87 236.74 87.16 236.83L91.02 239.06ZM108.83 243.12L113.21 240.59C113.4 240.49 113.42 240.32 113.27 240.24L109.41 238.01C109.31 237.96 109.2 237.95 109.1 237.95C108.99 237.96 108.89 237.99 108.8 238.04L104.43 240.57C104.24 240.67 104.21 240.84 104.37 240.93L108.23 243.16C108.32 243.19 108.42 243.21 108.52 243.2C108.62 243.2 108.72 243.17 108.8 243.12L108.83 243.12ZM101.82 246.85C101.92 246.89 102.02 246.91 102.13 246.91C102.24 246.9 102.34 246.87 102.44 246.81L106.81 244.29C107 244.18 107.02 244.02 106.87 243.93L103.01 241.71C102.91 241.66 102.81 241.64 102.7 241.65C102.59 241.65 102.49 241.69 102.39 241.74L98.02 244.27C97.83 244.37 97.81 244.53 97.96 244.62L101.82 246.85ZM89.52 228.11L85.14 230.63C84.95 230.74 84.92 230.9 85.08 230.99L88.94 233.22C89.04 233.26 89.14 233.28 89.25 233.27C89.36 233.27 89.46 233.23 89.55 233.18L93.94 230.65C94.12 230.55 94.15 230.39 94 230.3L90.13 228.07C90.04 228.02 89.93 228.01 89.82 228.01C89.72 228.02 89.61 228.05 89.52 228.1L89.52 228.11ZM121.52 209.63L117.14 212.16C116.95 212.27 116.92 212.42 117.08 212.51L120.94 214.74C121.04 214.79 121.14 214.81 121.25 214.81C121.35 214.81 121.46 214.79 121.55 214.74L125.93 212.21C126.12 212.1 126.15 211.95 125.99 211.86L122.13 209.63C122.04 209.59 121.93 209.56 121.83 209.56C121.72 209.56 121.62 209.59 121.53 209.63L121.52 209.63ZM95.92 224.41L91.55 226.94C91.36 227.04 91.34 227.21 91.49 227.29L95.35 229.52C95.44 229.57 95.55 229.6 95.66 229.6C95.76 229.6 95.87 229.57 95.97 229.52L100.36 226.96C100.55 226.86 100.57 226.69 100.42 226.6L96.55 224.37C96.46 224.33 96.35 224.31 96.24 224.32C96.13 224.32 96.03 224.35 95.93 224.41L95.92 224.41ZM127.91 205.94L123.55 208.46C123.37 208.56 123.34 208.72 123.49 208.81L127.35 211.04C127.45 211.08 127.55 211.1 127.66 211.1C127.77 211.09 127.87 211.06 127.97 211.01L132.34 208.48C132.53 208.37 132.55 208.21 132.4 208.12L128.54 205.89C128.44 205.85 128.34 205.83 128.23 205.84C128.12 205.85 128.02 205.88 127.93 205.94L127.91 205.94ZM115.11 213.32L110.73 215.85C110.55 215.96 110.52 216.12 110.67 216.21L114.54 218.44C114.63 218.48 114.74 218.5 114.85 218.49C114.96 218.49 115.06 218.45 115.15 218.4L119.53 215.87C119.71 215.77 119.74 215.61 119.59 215.52L115.73 213.29C115.63 213.25 115.53 213.23 115.42 213.24C115.32 213.24 115.22 213.27 115.13 213.32L115.11 213.32ZM108.71 217.02L104.33 219.55C104.14 219.66 104.12 219.82 104.27 219.9L108.14 222.13C108.23 222.18 108.34 222.19 108.44 222.19C108.55 222.18 108.65 222.15 108.75 222.1L113.12 219.57C113.31 219.46 113.34 219.3 113.18 219.22L109.32 216.98C109.22 216.94 109.12 216.93 109.02 216.93C108.91 216.94 108.81 216.97 108.72 217.02L108.71 217.02ZM102.31 220.72L97.93 223.24C97.75 223.35 97.72 223.51 97.87 223.6L101.74 225.82C101.83 225.87 101.94 225.89 102.05 225.88C102.16 225.88 102.26 225.85 102.35 225.79L106.73 223.26C106.91 223.16 106.94 223 106.79 222.91L102.93 220.68C102.83 220.64 102.73 220.62 102.62 220.63C102.52 220.64 102.42 220.67 102.33 220.72L102.31 220.72ZM131.34 223.08L135.72 220.55C135.9 220.45 135.93 220.29 135.78 220.2L131.93 217.95C131.83 217.9 131.73 217.87 131.62 217.87C131.52 217.87 131.41 217.9 131.32 217.95L126.94 220.47C126.75 220.58 126.72 220.74 126.88 220.83L130.74 223.06C130.83 223.11 130.94 223.14 131.04 223.14C131.15 223.15 131.25 223.13 131.35 223.08L131.34 223.08ZM191.24 169.37L186.85 171.91C186.67 172.01 186.64 172.17 186.79 172.26L190.66 174.49C190.76 174.53 190.86 174.55 190.97 174.55C191.08 174.54 191.18 174.51 191.27 174.46L195.65 171.93C195.84 171.82 195.86 171.66 195.71 171.57L191.85 169.34C191.75 169.3 191.65 169.28 191.54 169.29C191.44 169.29 191.34 169.32 191.25 169.37L191.24 169.37ZM183.49 173.85L179.11 176.38C178.93 176.49 178.9 176.64 179.05 176.73L182.91 178.96C183 179.01 183.11 179.03 183.21 179.03C183.32 179.03 183.42 179.01 183.52 178.96L187.9 176.43C188.09 176.33 188.11 176.17 187.96 176.08L184.1 173.85C184.01 173.8 183.91 173.78 183.8 173.78C183.7 173.78 183.6 173.81 183.5 173.85L183.49 173.85ZM197.63 165.68L193.26 168.21C193.07 168.32 193.05 168.48 193.19 168.57L197.06 170.8C197.15 170.84 197.26 170.86 197.37 170.85C197.47 170.84 197.57 170.81 197.67 170.76L202.05 168.23C202.23 168.12 202.26 167.96 202.11 167.88L198.25 165.65C198.15 165.61 198.05 165.59 197.95 165.59C197.84 165.6 197.74 165.63 197.65 165.68L197.63 165.68ZM162.01 198.38L166.39 195.85C166.57 195.75 166.6 195.59 166.45 195.5L162.58 193.27C162.49 193.23 162.38 193.21 162.27 193.22C162.16 193.22 162.06 193.25 161.97 193.31L157.6 195.83C157.42 195.94 157.39 196.09 157.54 196.18L161.4 198.41C161.5 198.45 161.61 198.47 161.71 198.47C161.82 198.46 161.92 198.43 162.02 198.37L162.01 198.38ZM204.69 161.96C204.6 161.91 204.49 161.89 204.39 161.89C204.28 161.89 204.18 161.91 204.08 161.96L199.71 164.48C199.52 164.59 199.49 164.75 199.64 164.84L203.51 167.07C203.6 167.11 203.71 167.13 203.82 167.12C203.92 167.12 204.02 167.08 204.12 167.03L208.49 164.5C208.68 164.4 208.71 164.24 208.55 164.15L204.69 161.96ZM137.75 219.39L142.13 216.86C142.32 216.76 142.35 216.6 142.19 216.51L138.33 214.28C138.23 214.24 138.13 214.22 138.02 214.23C137.91 214.23 137.81 214.26 137.72 214.32L133.34 216.84C133.15 216.95 133.13 217.11 133.27 217.2L137.14 219.43C137.24 219.47 137.35 219.49 137.45 219.48C137.56 219.47 137.67 219.44 137.76 219.38L137.75 219.39ZM216.21 174.08L220.59 171.55C220.78 171.44 220.8 171.29 220.65 171.2L216.79 168.97C216.69 168.93 216.58 168.91 216.48 168.92C216.37 168.92 216.27 168.95 216.18 169L211.8 171.53C211.61 171.64 211.58 171.8 211.74 171.88L215.6 174.12C215.7 174.16 215.81 174.18 215.92 174.17C216.02 174.16 216.13 174.13 216.22 174.07L216.21 174.08ZM203.74 174.27L208.11 171.74C208.3 171.63 208.33 171.48 208.18 171.39L204.31 169.16C204.22 169.12 204.11 169.1 204 169.11C203.9 169.11 203.8 169.14 203.7 169.19L199.33 171.72C199.14 171.83 199.11 171.99 199.27 172.07L203.13 174.3C203.23 174.35 203.34 174.37 203.45 174.36C203.56 174.36 203.66 174.33 203.76 174.27L203.74 174.27ZM210.72 165.46C210.62 165.42 210.51 165.4 210.4 165.4C210.3 165.41 210.19 165.44 210.1 165.49L205.72 168.03C205.54 168.13 205.51 168.29 205.66 168.38L209.52 170.61C209.62 170.65 209.73 170.67 209.83 170.67C209.94 170.66 210.05 170.63 210.14 170.58L214.52 168.05C214.7 167.94 214.73 167.78 214.58 167.69L210.72 165.46ZM212.07 164.68L222 170.42C222.1 170.46 222.21 170.48 222.31 170.48C222.42 170.47 222.53 170.44 222.62 170.39L227 167.86C227.18 167.75 227.21 167.6 227.06 167.51L217.12 161.77C217.02 161.72 216.92 161.7 216.81 161.7C216.71 161.7 216.6 161.72 216.51 161.77L212.15 164.33C211.96 164.42 211.93 164.59 212.08 164.68L212.07 164.68ZM197.31 172.88L192.93 175.41C192.75 175.52 192.71 175.67 192.87 175.76L196.73 178C196.83 178.04 196.94 178.06 197.04 178.05C197.15 178.04 197.26 178.01 197.35 177.96L201.72 175.43C201.91 175.32 201.93 175.16 201.79 175.08L197.92 172.85C197.83 172.81 197.72 172.79 197.62 172.79C197.52 172.8 197.41 172.83 197.32 172.88L197.31 172.88ZM149.14 200.69L144.76 203.22C144.57 203.33 144.54 203.48 144.7 203.57L148.56 205.8C148.66 205.84 148.76 205.86 148.87 205.86C148.97 205.85 149.08 205.82 149.17 205.77L153.55 203.24C153.74 203.13 153.76 202.97 153.61 202.89L149.75 200.65C149.66 200.61 149.55 200.59 149.44 200.6C149.34 200.61 149.24 200.64 149.14 200.69L149.14 200.69ZM209.2 177.81C209.3 177.85 209.4 177.87 209.51 177.86C209.62 177.86 209.72 177.83 209.81 177.77L214.19 175.25C214.37 175.14 214.4 174.97 214.25 174.89L210.39 172.66C210.29 172.61 210.19 172.58 210.08 172.58C209.97 172.58 209.87 172.61 209.77 172.66L205.42 175.26C205.23 175.36 205.21 175.52 205.36 175.61L209.2 177.81ZM155.54 196.99L151.17 199.52C150.98 199.63 150.96 199.79 151.11 199.88L154.98 202.11C155.07 202.15 155.18 202.17 155.28 202.16C155.39 202.16 155.49 202.13 155.59 202.07L159.96 199.54C160.15 199.44 160.18 199.28 160.02 199.19L156.16 196.96C156.07 196.92 155.96 196.9 155.86 196.91C155.75 196.91 155.65 196.94 155.56 196.99L155.54 196.99ZM105.12 237.89C105.22 237.94 105.33 237.96 105.43 237.95C105.54 237.94 105.64 237.91 105.73 237.86L110.11 235.33C110.3 235.22 110.33 235.06 110.17 234.97L106.31 232.74C106.21 232.7 106.11 232.67 106 232.67C105.9 232.67 105.79 232.7 105.7 232.74L101.32 235.28C101.13 235.38 101.11 235.54 101.26 235.63L105.12 237.89ZM97.94 230.24L93.58 232.77C93.39 232.88 93.37 233.04 93.52 233.13L97.38 235.36C97.47 235.41 97.58 235.43 97.69 235.43C97.79 235.43 97.9 235.41 98 235.36L102.38 232.83C102.57 232.73 102.6 232.56 102.44 232.48L98.58 230.25C98.49 230.2 98.38 230.18 98.28 230.18C98.17 230.18 98.07 230.2 97.97 230.25L97.94 230.24ZM112.14 234.16L116.51 231.63C116.7 231.53 116.72 231.37 116.57 231.28L112.71 229.05C112.61 229.01 112.51 228.99 112.4 229C112.29 229 112.19 229.03 112.09 229.09L107.72 231.61C107.53 231.72 107.51 231.88 107.66 231.97L111.52 234.2C111.62 234.25 111.73 234.27 111.84 234.26C111.95 234.25 112.06 234.22 112.16 234.16L112.14 234.16ZM118.54 230.47L122.91 227.94C123.1 227.83 123.13 227.68 122.97 227.59L119.11 225.36C119.01 225.32 118.91 225.3 118.8 225.3C118.7 225.31 118.59 225.34 118.5 225.39L114.12 227.92C113.93 228.03 113.91 228.18 114.06 228.27L117.93 230.5C118.03 230.55 118.13 230.57 118.24 230.56C118.35 230.56 118.46 230.52 118.56 230.47L118.54 230.47ZM124.94 226.77L129.31 224.25C129.5 224.14 129.52 223.98 129.37 223.89L125.51 221.66C125.41 221.62 125.31 221.6 125.2 221.6C125.09 221.61 124.99 221.64 124.89 221.69L120.52 224.23C120.33 224.33 120.31 224.49 120.46 224.58L124.32 226.81C124.42 226.85 124.53 226.87 124.64 226.86C124.76 226.85 124.86 226.81 124.96 226.75L124.94 226.77ZM104.34 226.55L99.96 229.08C99.77 229.19 99.75 229.34 99.9 229.43L103.76 231.66C103.86 231.7 103.96 231.72 104.07 231.72C104.18 231.71 104.28 231.68 104.38 231.62L108.75 229.1C108.94 228.99 108.96 228.83 108.81 228.75L104.95 226.52C104.86 226.48 104.75 226.46 104.65 226.46C104.54 226.47 104.44 226.5 104.35 226.55L104.34 226.55ZM110.74 222.86L106.38 225.39C106.19 225.5 106.16 225.66 106.32 225.74L110.18 227.97C110.28 228.02 110.38 228.03 110.49 228.03C110.6 228.02 110.7 227.99 110.79 227.94L115.17 225.41C115.36 225.3 115.38 225.15 115.23 225.06L111.38 222.83C111.29 222.79 111.18 222.77 111.07 222.77C110.97 222.78 110.87 222.81 110.77 222.86L110.74 222.86ZM136.34 208.07L131.96 210.6C131.77 210.71 131.74 210.87 131.9 210.96L135.76 213.19C135.86 213.23 135.96 213.25 136.07 213.24C136.17 213.24 136.28 213.21 136.37 213.15L140.75 210.62C140.94 210.52 140.96 210.36 140.81 210.27L136.94 208.04C136.85 208 136.74 207.98 136.64 207.99C136.54 208 136.44 208.02 136.36 208.07L136.34 208.07ZM129.94 211.77L125.56 214.3C125.38 214.41 125.35 214.56 125.5 214.65L129.36 216.88C129.46 216.93 129.56 216.95 129.67 216.94C129.78 216.93 129.88 216.9 129.98 216.85L134.35 214.32C134.54 214.21 134.57 214.06 134.41 213.97L130.55 211.73C130.46 211.69 130.35 211.68 130.25 211.68C130.14 211.69 130.04 211.72 129.95 211.77L129.94 211.77ZM142.76 204.39L138.38 206.92C138.19 207.02 138.17 207.18 138.32 207.27L142.18 209.5C142.27 209.55 142.38 209.57 142.49 209.57C142.59 209.57 142.7 209.55 142.8 209.5L147.17 206.97C147.36 206.86 147.39 206.71 147.23 206.62L143.37 204.39C143.28 204.34 143.17 204.32 143.07 204.32C142.97 204.32 142.86 204.34 142.77 204.39L142.76 204.39ZM117.16 219.16L112.78 221.69C112.6 221.79 112.57 221.96 112.72 222.04L116.59 224.27C116.68 224.32 116.79 224.34 116.9 224.33C117.01 224.33 117.11 224.29 117.2 224.24L121.58 221.71C121.76 221.61 121.79 221.44 121.64 221.35L117.78 219.13C117.69 219.08 117.58 219.06 117.47 219.07C117.36 219.08 117.26 219.11 117.17 219.16L117.16 219.16ZM123.56 215.47L119.18 217.99C118.99 218.1 118.97 218.26 119.12 218.35L122.99 220.57C123.08 220.62 123.19 220.64 123.29 220.63C123.4 220.62 123.5 220.59 123.6 220.54L127.97 218.01C128.16 217.91 128.19 217.75 128.03 217.66L124.17 215.43C124.07 215.39 123.97 215.37 123.86 215.38C123.76 215.38 123.65 215.41 123.56 215.47ZM115.2 239.42L119.58 236.89C119.76 236.78 119.79 236.63 119.64 236.54L115.78 234.31C115.68 234.26 115.58 234.23 115.47 234.23C115.36 234.23 115.25 234.26 115.16 234.31L110.78 236.84C110.6 236.94 110.57 237.1 110.72 237.19L114.58 239.42C114.68 239.47 114.79 239.49 114.9 239.49C115 239.49 115.11 239.47 115.21 239.42L115.2 239.42ZM81.21 237.68L77.32 235.45C77.23 235.41 77.12 235.38 77.01 235.38C76.91 235.38 76.8 235.41 76.71 235.45L72.33 237.98C72.14 238.09 72.12 238.25 72.27 238.34L76.13 240.57C76.23 240.61 76.34 240.63 76.44 240.62C76.55 240.62 76.65 240.59 76.74 240.53L81.13 238C81.34 237.93 81.39 237.77 81.22 237.68L81.21 237.68ZM89.64 239.83L85.77 237.6C85.68 237.56 85.57 237.54 85.47 237.55C85.36 237.55 85.26 237.58 85.16 237.64L78.39 241.52C78.21 241.63 78.18 241.79 78.33 241.88L82.19 244.11C82.29 244.15 82.4 244.17 82.5 244.16C82.61 244.16 82.72 244.13 82.81 244.07L89.54 240.18C89.77 240.07 89.79 239.92 89.64 239.83L89.64 239.83ZM75.52 233.23L71.65 231C71.56 230.96 71.45 230.94 71.35 230.95C71.24 230.96 71.14 230.99 71.04 231.04L65.62 234.15C65.44 234.26 65.41 234.42 65.56 234.5L69.43 236.73C69.52 236.78 69.63 236.8 69.74 236.79C69.85 236.79 69.95 236.75 70.04 236.7L75.46 233.59C75.65 233.48 75.67 233.32 75.52 233.23ZM79.65 230.85C79.75 230.89 79.85 230.91 79.96 230.9C80.06 230.9 80.17 230.86 80.26 230.81L84.64 228.28C84.83 228.18 84.85 228.02 84.7 227.93L80.84 225.7C80.74 225.66 80.64 225.64 80.53 225.65C80.42 225.65 80.32 225.68 80.23 225.74L75.85 228.26C75.66 228.37 75.63 228.53 75.79 228.62L79.65 230.85ZM97.39 242.36L93.53 240.13C93.43 240.09 93.33 240.07 93.22 240.08C93.12 240.09 93.01 240.12 92.92 240.17L84.5 245.04C84.31 245.15 84.28 245.3 84.44 245.39L88.3 247.62C88.4 247.66 88.5 247.68 88.61 247.68C88.72 247.67 88.82 247.64 88.91 247.59L97.33 242.72C97.52 242.61 97.55 242.45 97.39 242.36L97.39 242.36ZM100.44 247.62L96.57 245.39C96.48 245.35 96.37 245.33 96.26 245.34C96.16 245.34 96.06 245.37 95.96 245.43L90.54 248.54C90.36 248.64 90.33 248.81 90.48 248.9L94.34 251.12C94.44 251.17 94.55 251.19 94.66 251.18C94.77 251.17 94.87 251.14 94.96 251.08L100.35 247.97C100.57 247.87 100.59 247.71 100.44 247.62ZM127.24 203.38C127.33 203.42 127.44 203.44 127.55 203.44C127.65 203.43 127.75 203.4 127.85 203.35L132.23 200.81C132.41 200.71 132.44 200.55 132.29 200.46L128.43 198.23C128.33 198.18 128.23 198.16 128.12 198.16C128.01 198.16 127.91 198.18 127.81 198.23L123.44 200.76C123.25 200.87 123.22 201.03 123.37 201.12L127.24 203.38ZM114.44 210.76C114.53 210.81 114.64 210.83 114.75 210.82C114.85 210.81 114.95 210.78 115.05 210.73L119.43 208.2C119.61 208.1 119.64 207.94 119.49 207.85L115.62 205.62C115.53 205.58 115.42 205.56 115.31 205.57C115.21 205.57 115.1 205.6 115.01 205.66L110.64 208.18C110.45 208.29 110.42 208.45 110.57 208.54L114.44 210.76ZM86.05 227.15C86.15 227.2 86.26 227.22 86.36 227.21C86.47 227.2 86.57 227.17 86.66 227.12L91.04 224.59C91.23 224.48 91.26 224.32 91.1 224.24L87.24 222C87.14 221.96 87.04 221.95 86.93 221.95C86.83 221.96 86.72 221.99 86.63 222.05L82.25 224.57C82.06 224.68 82.04 224.84 82.19 224.92L86.05 227.15ZM120.83 207.1C120.93 207.15 121.03 207.17 121.14 207.17C121.25 207.17 121.35 207.15 121.45 207.1L125.83 204.57C126.02 204.46 126.04 204.3 125.89 204.21L122.03 201.98C121.93 201.94 121.82 201.92 121.72 201.93C121.61 201.94 121.51 201.97 121.42 202.02L117.03 204.55C116.85 204.66 116.82 204.82 116.97 204.9L120.83 207.1ZM108.03 214.49C108.13 214.53 108.24 214.55 108.34 214.55C108.45 214.54 108.56 214.51 108.65 214.46L113.03 211.92C113.21 211.82 113.24 211.66 113.09 211.57L109.23 209.34C109.13 209.3 109.02 209.28 108.91 209.28C108.81 209.29 108.7 209.32 108.61 209.38L104.23 211.9C104.05 212.01 104.02 212.17 104.17 212.26L108.03 214.49ZM103.97 248.15C103.87 248.11 103.76 248.09 103.65 248.09C103.55 248.1 103.44 248.13 103.35 248.18L96.61 252.07C96.42 252.18 96.4 252.34 96.55 252.42L100.42 254.65C100.51 254.7 100.62 254.73 100.72 254.73C100.83 254.73 100.93 254.7 101.03 254.65L107.8 250.76C107.98 250.66 108.01 250.5 107.86 250.41L103.97 248.15ZM98.82 219.79C98.92 219.83 99.02 219.85 99.13 219.84C99.23 219.84 99.34 219.81 99.43 219.75L103.81 217.23C104 217.12 104.02 216.96 103.87 216.88L100 214.65C99.91 214.6 99.8 214.57 99.7 214.57C99.59 214.57 99.49 214.6 99.39 214.65L95.02 217.17C94.83 217.28 94.8 217.44 94.96 217.53L98.82 219.79ZM92.42 223.49C92.51 223.54 92.62 223.56 92.73 223.56C92.83 223.56 92.94 223.54 93.03 223.49L97.41 220.95C97.59 220.85 97.62 220.69 97.47 220.6L93.61 218.37C93.51 218.33 93.41 218.31 93.3 218.32C93.19 218.32 93.09 218.35 92.99 218.41L88.62 220.93C88.43 221.04 88.41 221.21 88.56 221.29L92.42 223.49ZM222.5 179.69C222.4 179.65 222.3 179.63 222.19 179.64C222.08 179.65 221.98 179.68 221.89 179.73L211.11 185.95C210.92 186.06 210.9 186.21 211.05 186.3L214.91 188.53C215.01 188.57 215.12 188.59 215.22 188.59C215.33 188.58 215.43 188.55 215.52 188.5L226.38 182.25C226.56 182.14 226.59 181.99 226.44 181.9L222.5 179.69ZM208.36 187.86C208.26 187.82 208.15 187.8 208.05 187.8C207.94 187.81 207.84 187.84 207.75 187.89L203.36 190.42C203.18 190.53 203.15 190.69 203.3 190.78L207.16 193.01C207.26 193.05 207.37 193.07 207.48 193.06C207.58 193.06 207.69 193.02 207.78 192.97L212.16 190.44C212.35 190.34 212.37 190.18 212.22 190.09L208.36 187.86ZM121.6 235.73L125.98 233.2C126.17 233.09 126.19 232.93 126.04 232.85L122.18 230.61C122.08 230.57 121.98 230.55 121.87 230.56C121.76 230.56 121.66 230.6 121.57 230.65L117.19 233.18C117 233.29 116.97 233.44 117.13 233.53L120.99 235.76C121.09 235.8 121.19 235.82 121.3 235.82C121.41 235.81 121.51 235.78 121.6 235.73ZM195.62 195.23C195.53 195.18 195.42 195.15 195.31 195.15C195.21 195.15 195.1 195.18 195.01 195.23L190.63 197.76C190.45 197.86 190.42 198.02 190.57 198.11L194.43 200.34C194.53 200.38 194.63 200.4 194.74 200.39C194.85 200.39 194.95 200.36 195.05 200.3L199.42 197.78C199.61 197.67 199.63 197.51 199.48 197.42L195.62 195.23ZM228.97 175.97C228.87 175.93 228.77 175.91 228.66 175.92C228.55 175.92 228.45 175.95 228.35 176.01L223.98 178.53C223.79 178.64 223.76 178.81 223.92 178.89L227.78 181.12C227.87 181.17 227.98 181.18 228.09 181.18C228.19 181.17 228.3 181.14 228.39 181.09L232.77 178.56C232.95 178.45 232.98 178.29 232.83 178.2L228.97 175.97ZM239.26 174.51L229.32 168.77C229.22 168.73 229.11 168.71 229.01 168.72C228.9 168.72 228.8 168.75 228.71 168.81L224.33 171.34C224.14 171.44 224.11 171.6 224.27 171.69L234.2 177.42C234.3 177.47 234.41 177.49 234.51 177.48C234.62 177.48 234.72 177.44 234.82 177.39L239.19 174.86C239.36 174.76 239.38 174.58 239.26 174.51L239.26 174.51ZM171.73 209.06C171.64 209.02 171.53 209 171.42 209.01C171.32 209.02 171.22 209.05 171.12 209.1L165.7 212.21C165.52 212.32 165.49 212.47 165.64 212.56L169.5 214.79C169.6 214.83 169.71 214.85 169.82 214.85C169.92 214.84 170.03 214.81 170.12 214.76L175.54 211.65C175.73 211.54 175.76 211.38 175.6 211.29L171.73 209.06ZM187.9 199.73C187.8 199.69 187.7 199.67 187.59 199.67C187.48 199.68 187.38 199.71 187.29 199.76L180.55 203.65C180.36 203.76 180.34 203.92 180.49 204L184.36 206.23C184.45 206.28 184.56 206.29 184.66 206.29C184.77 206.28 184.87 206.25 184.97 206.2L191.71 202.31C191.89 202.2 191.92 202.05 191.76 201.96L187.9 199.73ZM156.92 217.62C156.82 217.57 156.71 217.55 156.6 217.56C156.5 217.57 156.39 217.6 156.3 217.66L120.26 238.46C120.08 238.57 120.05 238.73 120.2 238.82L124.06 241.04C124.16 241.09 124.27 241.11 124.37 241.1C124.48 241.09 124.58 241.06 124.67 241.01L160.66 220.18C160.85 220.07 160.87 219.91 160.72 219.82L156.92 217.62ZM118.85 239.59C118.76 239.55 118.65 239.53 118.54 239.54C118.44 239.55 118.34 239.58 118.24 239.63L112.82 242.74C112.64 242.85 112.61 243 112.76 243.09L116.62 245.33C116.72 245.37 116.83 245.39 116.94 245.38C117.05 245.37 117.15 245.34 117.24 245.29L122.66 242.18C122.85 242.07 122.88 241.91 122.72 241.82L118.85 239.59ZM164.32 213.34C164.23 213.3 164.12 213.28 164.01 213.29C163.91 213.29 163.8 213.32 163.71 213.37L158.33 216.48C158.14 216.59 158.11 216.76 158.27 216.84L162.13 219.07C162.22 219.12 162.33 219.13 162.44 219.13C162.54 219.12 162.64 219.09 162.74 219.04L168.16 215.92C168.34 215.81 168.37 215.66 168.21 215.57L164.32 213.34ZM111.44 243.87C111.35 243.82 111.24 243.8 111.14 243.8C111.03 243.8 110.93 243.82 110.83 243.87L105.45 246.99C105.26 247.09 105.23 247.25 105.38 247.34L109.25 249.57C109.34 249.61 109.45 249.63 109.56 249.62C109.66 249.62 109.76 249.59 109.86 249.53L115.24 246.42C115.43 246.32 115.46 246.15 115.3 246.06L111.44 243.87ZM179.14 204.78C179.05 204.74 178.94 204.71 178.83 204.71C178.73 204.71 178.62 204.74 178.52 204.78L173.14 207.9C172.96 208 172.93 208.16 173.08 208.25L176.92 210.49C177.02 210.53 177.12 210.55 177.23 210.55C177.34 210.54 177.44 210.51 177.54 210.45L182.96 207.34C183.14 207.24 183.17 207.07 183.02 206.99L179.14 204.78ZM201.99 191.52C201.89 191.48 201.78 191.46 201.68 191.47C201.57 191.47 201.47 191.5 201.38 191.56L197 194.09C196.81 194.19 196.78 194.35 196.94 194.44L200.8 196.67C200.9 196.71 201 196.73 201.11 196.72C201.22 196.72 201.32 196.69 201.41 196.63L205.79 194.11C205.98 194 206.01 193.83 205.85 193.75L201.99 191.52ZM215.89 181.26L220.26 178.73C220.45 178.62 220.48 178.47 220.33 178.38L216.46 176.15C216.37 176.11 216.26 176.09 216.15 176.1C216.05 176.1 215.95 176.13 215.85 176.19L211.48 178.73C211.29 178.83 211.26 178.99 211.42 179.08L215.28 181.31C215.38 181.36 215.49 181.38 215.6 181.37C215.71 181.37 215.82 181.33 215.91 181.27L215.89 181.26ZM189.59 182.42L193.97 179.88C194.16 179.78 194.19 179.62 194.03 179.53L190.17 177.3C190.07 177.26 189.97 177.23 189.86 177.23C189.76 177.23 189.65 177.26 189.56 177.3L185.18 179.83C184.99 179.94 184.97 180.1 185.12 180.19L188.98 182.42C189.08 182.47 189.19 182.5 189.3 182.51C189.41 182.51 189.52 182.48 189.62 182.43L189.59 182.42ZM172.78 206.13L185.58 198.74C185.76 198.64 185.79 198.47 185.64 198.38L181.78 196.16C181.68 196.11 181.57 196.09 181.46 196.1C181.36 196.1 181.25 196.14 181.16 196.19L168.39 203.62C168.21 203.72 168.18 203.88 168.33 203.97L172.19 206.2C172.29 206.24 172.39 206.26 172.5 206.25C172.61 206.25 172.71 206.22 172.81 206.16L172.78 206.13ZM208.88 184.97C208.98 185.01 209.08 185.03 209.19 185.03C209.3 185.02 209.4 184.99 209.49 184.94L213.87 182.41C214.05 182.3 214.08 182.14 213.93 182.05L210.07 179.82C209.97 179.77 209.87 179.75 209.76 179.75C209.65 179.75 209.55 179.77 209.45 179.82L205.08 182.35C204.89 182.45 204.87 182.62 205.02 182.71L208.88 184.97ZM203.42 181.43L207.79 178.9C207.98 178.79 208.01 178.64 207.85 178.55L203.99 176.32C203.9 176.28 203.79 176.26 203.68 176.26C203.58 176.27 203.47 176.3 203.38 176.35L199.01 178.88C198.82 178.99 198.79 179.14 198.94 179.23L202.81 181.46C202.9 181.51 203.01 181.54 203.12 181.54C203.24 181.54 203.35 181.51 203.44 181.46L203.42 181.43ZM166.38 209.83L170.76 207.29C170.94 207.19 170.97 207.03 170.81 206.94L166.95 204.71C166.86 204.67 166.75 204.65 166.64 204.66C166.54 204.66 166.43 204.69 166.34 204.75L162.02 207.31C161.83 207.41 161.8 207.58 161.96 207.67L165.82 209.89C165.91 209.93 166.01 209.95 166.12 209.94C166.22 209.94 166.31 209.91 166.4 209.86L166.38 209.83ZM194.73 193.13C194.83 193.18 194.94 193.2 195.04 193.19C195.15 193.18 195.25 193.15 195.35 193.1L199.72 190.57C199.91 190.46 199.93 190.31 199.79 190.22L195.92 187.99C195.83 187.94 195.72 187.92 195.61 187.92C195.51 187.92 195.4 187.94 195.31 187.99L190.93 190.52C190.75 190.63 190.72 190.78 190.87 190.87L194.73 193.13ZM134.38 228.3L138.76 225.77C138.94 225.66 138.97 225.5 138.82 225.42L134.96 223.19C134.86 223.14 134.75 223.12 134.65 223.13C134.54 223.14 134.44 223.17 134.34 223.22L129.97 225.75C129.78 225.86 129.75 226.01 129.9 226.1L133.77 228.33C133.86 228.38 133.97 228.41 134.08 228.41C134.2 228.41 134.31 228.38 134.4 228.33L134.38 228.3ZM140.78 224.6L145.15 222.08C145.34 221.97 145.37 221.81 145.21 221.72L141.35 219.49C141.25 219.45 141.15 219.43 141.04 219.44C140.94 219.44 140.83 219.47 140.74 219.53L136.37 222.06C136.17 222.16 136.15 222.32 136.3 222.41L140.17 224.64C140.26 224.69 140.37 224.72 140.48 224.72C140.6 224.72 140.71 224.69 140.8 224.64L140.78 224.6ZM128 232.03L132.38 229.5C132.57 229.39 132.6 229.23 132.44 229.14L128.58 226.91C128.48 226.87 128.38 226.85 128.27 226.86C128.17 226.86 128.06 226.89 127.97 226.95L123.59 229.45C123.4 229.56 123.38 229.73 123.53 229.81L127.39 232.04C127.49 232.09 127.59 232.11 127.7 232.11C127.81 232.11 127.91 232.08 128.01 232.03L128 232.03ZM153.61 217.26L157.98 214.73C158.17 214.62 158.2 214.47 158.04 214.38L154.18 212.15C154.08 212.11 153.98 212.09 153.87 212.1C153.77 212.1 153.66 212.13 153.57 212.18L149.19 214.71C149 214.82 148.98 214.98 149.13 215.06L153 217.29C153.09 217.34 153.2 217.36 153.3 217.35C153.41 217.35 153.51 217.32 153.6 217.26L153.61 217.26ZM147.21 220.96L151.58 218.42C151.77 218.32 151.79 218.16 151.64 218.07L147.78 215.84C147.68 215.8 147.58 215.78 147.47 215.79C147.36 215.79 147.26 215.82 147.16 215.88L142.79 218.4C142.6 218.51 142.58 218.68 142.73 218.76L146.59 220.99C146.69 221.03 146.8 221.05 146.9 221.04C147.01 221.04 147.11 221 147.21 220.95L147.21 220.96ZM159.98 213.56L164.36 211.03C164.54 210.92 164.57 210.77 164.42 210.68L160.56 208.44C160.46 208.4 160.35 208.38 160.25 208.39C160.14 208.4 160.03 208.43 159.94 208.48L155.57 211.01C155.38 211.12 155.36 211.27 155.5 211.36L159.37 213.59C159.46 213.64 159.57 213.66 159.68 213.65C159.79 213.64 159.89 213.61 159.98 213.56ZM195.36 162.38C195.46 162.43 195.56 162.46 195.67 162.46C195.77 162.46 195.88 162.43 195.97 162.38L200.36 159.86C200.54 159.75 200.57 159.59 200.42 159.5L199.39 158.91C199.29 158.86 199.19 158.84 199.08 158.84C198.98 158.84 198.87 158.86 198.78 158.91L194.39 161.44C194.21 161.54 194.18 161.7 194.33 161.79L195.36 162.38ZM163.44 182.48C163.53 182.53 163.64 182.55 163.75 182.54C163.85 182.53 163.96 182.5 164.05 182.45L168.43 179.92C168.62 179.82 168.64 179.66 168.49 179.57L164.62 177.34C164.53 177.3 164.42 177.28 164.32 177.29C164.21 177.29 164.11 177.32 164.01 177.38L159.63 179.9C159.45 180.01 159.42 180.17 159.57 180.26L163.44 182.48ZM176.24 175.09C176.34 175.14 176.45 175.15 176.55 175.15C176.66 175.14 176.76 175.11 176.85 175.06L181.23 172.53C181.42 172.42 181.45 172.27 181.29 172.18L177.43 169.95C177.33 169.9 177.23 169.88 177.12 169.88C177.02 169.88 176.91 169.9 176.82 169.95L172.44 172.48C172.25 172.59 172.23 172.74 172.38 172.83L176.24 175.09ZM155.63 186.99C155.72 187.04 155.83 187.06 155.94 187.05C156.05 187.04 156.15 187.01 156.24 186.96L160.62 184.43C160.8 184.32 160.83 184.17 160.68 184.08L156.82 181.84C156.72 181.8 156.61 181.78 156.5 181.79C156.4 181.8 156.29 181.83 156.2 181.88L151.85 184.41C151.67 184.52 151.64 184.68 151.79 184.76L155.63 186.99ZM169.85 178.79C169.95 178.84 170.06 178.87 170.16 178.87C170.27 178.87 170.38 178.84 170.47 178.79L174.85 176.26C175.03 176.16 175.06 175.99 174.91 175.91L171.05 173.68C170.95 173.63 170.84 173.61 170.73 173.62C170.63 173.63 170.52 173.66 170.43 173.71L166.05 176.24C165.87 176.35 165.84 176.51 165.99 176.6L169.85 178.79ZM142.84 194.38C142.94 194.42 143.04 194.44 143.15 194.43C143.26 194.43 143.36 194.39 143.45 194.34L147.84 191.81C148.02 191.71 148.05 191.54 147.9 191.46L144.03 189.23C143.94 189.18 143.83 189.16 143.72 189.17C143.61 189.18 143.51 189.21 143.42 189.26L139.04 191.79C138.85 191.9 138.82 192.06 138.98 192.15L142.84 194.38ZM149.24 190.68C149.34 190.72 149.44 190.75 149.55 190.75C149.65 190.75 149.76 190.72 149.85 190.68L154.23 188.15C154.42 188.04 154.45 187.88 154.29 187.8L150.43 185.57C150.33 185.53 150.22 185.51 150.12 185.51C150.01 185.52 149.91 185.55 149.82 185.6L145.42 188.14C145.23 188.24 145.2 188.4 145.36 188.49L149.24 190.68ZM182.56 169.84C182.66 169.88 182.77 169.9 182.87 169.89C182.98 169.89 183.08 169.85 183.17 169.8L187.56 167.27C187.74 167.17 187.77 167.01 187.62 166.92L186.59 166.32C186.49 166.28 186.38 166.26 186.27 166.27C186.17 166.27 186.06 166.31 185.97 166.36L181.59 168.89C181.41 169 181.38 169.15 181.53 169.24L182.56 169.84ZM201.76 158.76C201.86 158.8 201.97 158.82 202.07 158.81C202.18 158.8 202.28 158.77 202.37 158.72L206.73 156.16C206.92 156.05 206.95 155.89 206.79 155.8L205.77 155.2C205.67 155.16 205.56 155.14 205.45 155.15C205.35 155.16 205.24 155.19 205.15 155.24L200.77 157.77C200.58 157.88 200.56 158.03 200.71 158.12L201.76 158.76ZM209.89 163.44C209.99 163.48 210.1 163.5 210.2 163.5C210.31 163.49 210.42 163.46 210.51 163.41L214.89 160.88C215.07 160.77 215.1 160.61 214.95 160.52L211.09 158.29C210.99 158.24 210.88 158.22 210.78 158.22C210.67 158.22 210.56 158.24 210.47 158.29L206.05 160.82C205.87 160.92 205.84 161.09 205.99 161.18L209.89 163.44ZM222.31 177.59L226.69 175.06C226.87 174.95 226.91 174.8 226.75 174.71L222.89 172.48C222.79 172.44 222.68 172.42 222.57 172.42C222.47 172.43 222.36 172.46 222.27 172.51L217.89 175.04C217.71 175.15 217.68 175.3 217.83 175.39L221.69 177.62C221.79 177.66 221.9 177.68 222.01 177.68C222.12 177.67 222.22 177.64 222.32 177.58L222.31 177.59ZM188.96 166.11C189.06 166.15 189.17 166.17 189.27 166.17C189.38 166.16 189.48 166.13 189.57 166.08L193.95 163.55C194.14 163.44 194.17 163.28 194.01 163.2L192.98 162.6C192.88 162.55 192.78 162.53 192.67 162.54C192.57 162.55 192.46 162.58 192.37 162.63L187.99 165.16C187.8 165.27 187.78 165.43 187.93 165.52L188.96 166.11ZM136.41 198.08C136.51 198.13 136.62 198.15 136.73 198.14C136.83 198.13 136.94 198.1 137.03 198.05L141.41 195.52C141.6 195.41 141.63 195.26 141.47 195.17L137.61 192.93C137.51 192.89 137.4 192.87 137.3 192.88C137.19 192.89 137.09 192.92 137 192.97L132.61 195.5C132.43 195.61 132.4 195.76 132.55 195.85L136.41 198.08Z" fill="#455A64" fill-opacity="1.000000" fill-rule="nonzero"/>
	<path id="Path 359" d="M156.02 231.13L156.91 231.64L180.76 245.41L223.17 220.92L224.05 220.42L199.31 206.14L156.02 231.13Z" fill="#263238" fill-opacity="1.000000" fill-rule="nonzero"/>
	<path id="Path 360" d="M222.77 221.16L199.31 207.62L157.31 231.87L180.76 245.41L222.77 221.16Z" fill="#37474F" fill-opacity="1.000000" fill-rule="nonzero"/>
	<path id="Path 361" d="M249.57 32.58C249.64 31.89 249.53 31.19 249.24 30.55C248.95 29.91 248.5 29.36 247.93 28.95C246.93 28.36 241 24.94 239.97 24.36C239.34 24.07 238.63 23.95 237.94 24.02C237.24 24.09 236.57 24.35 236.01 24.76L125.43 88.62L125.43 125.21L133.36 129.78L243.93 65.94C245.57 64.87 246.94 63.43 247.92 61.73C248.9 60.04 249.46 58.14 249.57 56.18L249.57 32.58Z" fill="#7D97FF" fill-opacity="1.000000" fill-rule="nonzero"/>
	<g opacity="0.150000">
		<path id="Path 362" d="M249.57 32.58C249.64 31.89 249.53 31.19 249.24 30.55C248.95 29.91 248.5 29.36 247.93 28.95C246.93 28.36 241 24.94 239.97 24.36C239.34 24.07 238.63 23.95 237.94 24.02C237.24 24.09 236.57 24.35 236.01 24.76L125.43 88.62L125.43 125.21L133.36 129.78L243.93 65.94C245.57 64.87 246.94 63.43 247.92 61.73C248.9 60.04 249.46 58.14 249.57 56.18L249.57 32.58Z" fill="#000000" fill-opacity="1.000000" fill-rule="nonzero"/>
	</g>
	<path id="Path 363" d="M243.93 29.33C247.05 27.53 249.57 28.99 249.57 32.58L249.57 56.18C249.46 58.13 248.9 60.04 247.92 61.73C246.94 63.43 245.57 64.87 243.93 65.93L133.32 129.8L133.32 93.22L243.93 29.33Z" fill="#7D97FF" fill-opacity="1.000000" fill-rule="nonzero"/>
	<path id="Path 364" d="M242.8 62.92C243.9 62.2 244.82 61.23 245.48 60.09C246.14 58.95 246.52 57.67 246.59 56.35L246.59 34.55C246.59 32.83 245.38 32.13 243.88 32.98L135.55 95.58L135.55 124.89L242.8 62.92Z" fill="#FAFAFA" fill-opacity="1.000000" fill-rule="nonzero"/>
	<path id="Path 365" d="M154.43 106.83C154.43 107 154.39 107.17 154.31 107.33C154.26 107.47 154.16 107.59 154.03 107.67L152.16 108.75C152.12 108.79 152.07 108.81 152.02 108.81C151.96 108.81 151.91 108.79 151.87 108.75C151.83 108.7 151.8 108.64 151.78 108.58C151.76 108.52 151.75 108.45 151.76 108.38L151.76 102.6C151.8 102.11 151.69 101.62 151.45 101.2C151.24 100.92 150.91 100.91 150.47 101.2C150.02 101.46 149.67 101.87 149.49 102.35C149.28 102.91 149.18 103.51 149.19 104.11L149.19 109.89C149.19 110.07 149.14 110.24 149.07 110.4C149 110.54 148.91 110.66 148.78 110.75L146.91 111.82C146.87 111.86 146.82 111.88 146.77 111.88C146.72 111.88 146.67 111.86 146.63 111.82C146.58 111.77 146.55 111.71 146.53 111.65C146.51 111.59 146.51 111.52 146.51 111.46L146.51 96.38C146.51 96.21 146.55 96.04 146.63 95.88C146.68 95.74 146.78 95.62 146.91 95.53L148.78 94.45C148.82 94.42 148.87 94.4 148.92 94.4C148.98 94.4 149.03 94.42 149.07 94.45C149.11 94.5 149.14 94.56 149.17 94.62C149.19 94.68 149.2 94.75 149.19 94.82L149.19 99.69C149.4 99.21 149.66 98.75 149.98 98.33C150.3 97.86 150.72 97.46 151.21 97.17C151.6 96.93 152.05 96.78 152.52 96.73C152.7 96.72 152.89 96.74 153.06 96.8C153.24 96.86 153.4 96.96 153.53 97.09C153.87 97.44 154.1 97.87 154.21 98.33C154.39 99.05 154.47 99.79 154.45 100.53L154.43 106.83Z" fill="#455A64" fill-opacity="1.000000" fill-rule="nonzero"/>
	<path id="Path 366" d="M159.57 99.82C159.55 100.07 159.6 100.32 159.72 100.55C159.82 100.68 159.99 100.68 160.21 100.55L161.4 99.87C161.44 99.83 161.49 99.82 161.54 99.82C161.59 99.82 161.64 99.83 161.68 99.87C161.72 99.92 161.76 99.97 161.78 100.04C161.8 100.1 161.81 100.17 161.8 100.23L161.8 102.54C161.8 102.72 161.76 102.89 161.68 103.04C161.63 103.19 161.53 103.31 161.4 103.39L159.99 104.2C159.6 104.45 159.17 104.59 158.72 104.63C158.36 104.65 158.01 104.53 157.74 104.3C157.44 104.01 157.23 103.64 157.12 103.24C156.96 102.67 156.88 102.08 156.89 101.49L156.89 97.64L155.79 98.27C155.76 98.31 155.71 98.33 155.65 98.33C155.6 98.33 155.55 98.31 155.51 98.27C155.47 98.22 155.44 98.17 155.42 98.1C155.4 98.04 155.39 97.97 155.39 97.91L155.39 95.6C155.4 95.42 155.44 95.25 155.51 95.1C155.57 94.96 155.67 94.84 155.79 94.75L156.89 94.11L156.89 90.39C156.9 90.22 156.94 90.05 157.02 89.89C157.07 89.75 157.17 89.63 157.29 89.55L159.17 88.47C159.21 88.43 159.26 88.41 159.31 88.41C159.36 88.41 159.41 88.43 159.45 88.47C159.49 88.52 159.53 88.58 159.55 88.64C159.57 88.7 159.58 88.77 159.57 88.83L159.57 92.6L161.25 91.63C161.29 91.6 161.34 91.58 161.39 91.58C161.44 91.58 161.49 91.6 161.53 91.63C161.57 91.68 161.61 91.74 161.63 91.8C161.65 91.87 161.66 91.93 161.65 92L161.65 94.31C161.65 94.49 161.61 94.66 161.53 94.82C161.47 94.96 161.38 95.08 161.25 95.16L159.57 96.13L159.57 99.82Z" fill="#455A64" fill-opacity="1.000000" fill-rule="nonzero"/>
	<path id="Path 367" d="M166.61 95.76C166.59 96.01 166.64 96.26 166.76 96.48C166.86 96.62 167.02 96.62 167.25 96.48L168.44 95.8C168.48 95.77 168.53 95.75 168.58 95.75C168.63 95.75 168.68 95.77 168.72 95.8C168.76 95.85 168.8 95.91 168.82 95.97C168.84 96.04 168.85 96.1 168.84 96.17L168.84 98.48C168.84 98.65 168.8 98.82 168.72 98.98C168.67 99.12 168.57 99.24 168.44 99.33L167.03 100.14C166.65 100.38 166.21 100.53 165.76 100.57C165.4 100.59 165.05 100.47 164.78 100.23C164.48 99.95 164.26 99.58 164.16 99.18C164 98.61 163.92 98.01 163.93 97.42L163.93 93.58L162.83 94.21C162.8 94.25 162.75 94.27 162.69 94.27C162.64 94.27 162.59 94.25 162.56 94.21C162.51 94.16 162.48 94.1 162.46 94.04C162.43 93.98 162.43 93.91 162.43 93.84L162.43 91.53C162.44 91.36 162.48 91.19 162.56 91.03C162.61 90.89 162.71 90.77 162.83 90.69L163.93 90.05L163.93 86.33C163.93 86.15 163.97 85.98 164.05 85.83C164.11 85.68 164.21 85.56 164.33 85.48L166.2 84.4C166.24 84.37 166.29 84.35 166.35 84.35C166.4 84.35 166.45 84.37 166.49 84.4C166.57 84.51 166.61 84.64 166.6 84.77L166.6 88.54L168.28 87.57C168.32 87.53 168.37 87.51 168.43 87.51C168.48 87.51 168.53 87.53 168.57 87.57C168.61 87.62 168.64 87.68 168.66 87.74C168.68 87.8 168.69 87.87 168.68 87.93L168.68 90.23C168.68 90.41 168.64 90.58 168.57 90.74C168.51 90.88 168.41 91 168.28 91.09L166.6 92.06L166.61 95.76Z" fill="#455A64" fill-opacity="1.000000" fill-rule="nonzero"/>
	<path id="Path 368" d="M174.77 95.92C174.53 96.06 174.28 96.16 174.01 96.22C173.82 96.26 173.63 96.26 173.45 96.22C173.3 96.18 173.16 96.11 173.04 96.01C172.94 95.92 172.85 95.82 172.78 95.72L172.78 100.59C172.77 100.76 172.73 100.93 172.65 101.09C172.6 101.23 172.5 101.35 172.38 101.44L170.5 102.52C170.46 102.55 170.41 102.57 170.36 102.57C170.31 102.57 170.26 102.55 170.22 102.52C170.18 102.47 170.14 102.41 170.12 102.35C170.1 102.29 170.09 102.23 170.1 102.16L170.1 87.1C170.1 86.93 170.14 86.76 170.22 86.6C170.28 86.46 170.37 86.34 170.5 86.26L172.3 85.22C172.34 85.19 172.39 85.17 172.44 85.17C172.49 85.17 172.54 85.19 172.58 85.22C172.62 85.27 172.66 85.33 172.68 85.39C172.7 85.45 172.71 85.52 172.7 85.59L172.7 86.11C172.79 85.91 172.88 85.7 172.99 85.47C173.09 85.23 173.22 85 173.38 84.79C173.54 84.56 173.73 84.34 173.94 84.15C174.19 83.91 174.47 83.71 174.77 83.55C175.15 83.31 175.58 83.16 176.03 83.13C176.21 83.11 176.4 83.13 176.58 83.2C176.76 83.26 176.92 83.36 177.06 83.49C177.41 83.82 177.66 84.24 177.79 84.71C177.99 85.41 178.09 86.13 178.09 86.86L178.09 88.71C178.08 89.56 177.98 90.4 177.79 91.22C177.62 91.92 177.38 92.6 177.06 93.25C176.79 93.82 176.44 94.35 176.03 94.82C175.67 95.25 175.24 95.62 174.77 95.92ZM175.45 90C175.48 89.57 175.48 89.14 175.45 88.72C175.44 88.29 175.33 87.88 175.11 87.52C174.91 87.24 174.58 87.22 174.11 87.52C173.89 87.64 173.7 87.81 173.55 88C173.38 88.21 173.25 88.44 173.15 88.68C173.04 88.91 172.96 89.16 172.9 89.41C172.85 89.65 172.81 89.89 172.79 90.14L172.79 91.74C172.8 91.94 172.84 92.14 172.9 92.34C172.95 92.5 173.04 92.65 173.15 92.78C173.2 92.84 173.26 92.88 173.33 92.92C173.4 92.95 173.47 92.97 173.55 92.98C173.75 92.98 173.94 92.92 174.11 92.81C174.57 92.55 174.92 92.14 175.11 91.64C175.3 91.12 175.41 90.57 175.43 90L175.45 90Z" fill="#455A64" fill-opacity="1.000000" fill-rule="nonzero"/>
	<path id="Path 369" d="M182.22 82.76C182.22 82.93 182.18 83.1 182.11 83.26C182.05 83.4 181.95 83.52 181.82 83.61L179.88 84.73C179.84 84.76 179.79 84.78 179.74 84.78C179.68 84.78 179.63 84.76 179.59 84.73C179.55 84.68 179.52 84.62 179.5 84.56C179.48 84.5 179.47 84.43 179.48 84.37L179.48 81.35C179.48 81.18 179.52 81.01 179.59 80.85C179.65 80.71 179.75 80.59 179.88 80.5L181.82 79.38C181.86 79.35 181.91 79.33 181.97 79.33C182.02 79.33 182.07 79.35 182.11 79.38C182.15 79.43 182.18 79.49 182.2 79.55C182.22 79.61 182.23 79.68 182.22 79.75L182.22 82.76ZM182.22 90.77C182.22 90.94 182.18 91.11 182.11 91.27C182.05 91.41 181.95 91.53 181.82 91.61L179.88 92.74C179.84 92.77 179.79 92.79 179.74 92.79C179.68 92.79 179.63 92.77 179.59 92.74C179.55 92.69 179.52 92.63 179.5 92.57C179.48 92.51 179.47 92.44 179.48 92.37L179.48 89.37C179.48 89.2 179.52 89.03 179.59 88.87C179.65 88.73 179.75 88.61 179.88 88.53L181.82 87.4C181.86 87.37 181.91 87.35 181.97 87.35C182.02 87.35 182.07 87.37 182.11 87.4C182.19 87.51 182.23 87.64 182.22 87.77L182.22 90.77Z" fill="#455A64" fill-opacity="1.000000" fill-rule="nonzero"/>
	<path id="Path 370" d="M188.4 70.52C188.45 70.32 188.53 70.12 188.62 69.92C188.72 69.73 188.87 69.57 189.06 69.46L190.89 68.39C190.93 68.37 190.97 68.35 191.01 68.35C191.05 68.35 191.09 68.37 191.12 68.39C191.16 68.43 191.19 68.48 191.21 68.53C191.22 68.58 191.23 68.64 191.22 68.69C191.22 68.77 191.21 68.84 191.19 68.92L186.19 90.31C186.14 90.51 186.07 90.7 185.98 90.88C185.88 91.09 185.73 91.26 185.53 91.37L183.7 92.43C183.66 92.46 183.62 92.48 183.58 92.48C183.54 92.48 183.5 92.46 183.47 92.43C183.43 92.39 183.4 92.35 183.38 92.3C183.37 92.24 183.36 92.19 183.37 92.13C183.37 92.06 183.38 91.98 183.4 91.91L188.4 70.52Z" fill="#455A64" fill-opacity="1.000000" fill-rule="nonzero"/>
	<path id="Path 371" d="M193.49 67.58C193.55 67.38 193.62 67.18 193.72 66.98C193.81 66.79 193.96 66.63 194.15 66.52L196 65.45C196.03 65.43 196.07 65.41 196.11 65.41C196.15 65.41 196.19 65.43 196.23 65.45C196.26 65.49 196.29 65.54 196.3 65.59C196.32 65.65 196.33 65.7 196.32 65.75C196.32 65.83 196.31 65.9 196.29 65.98L191.29 87.37C191.23 87.56 191.16 87.76 191.08 87.94C190.98 88.15 190.82 88.32 190.63 88.43L188.82 89.47C188.79 89.5 188.75 89.52 188.71 89.52C188.66 89.52 188.62 89.5 188.59 89.47C188.55 89.43 188.53 89.39 188.51 89.33C188.49 89.28 188.49 89.23 188.49 89.17C188.49 89.1 188.5 89.02 188.52 88.95L193.49 67.58Z" fill="#455A64" fill-opacity="1.000000" fill-rule="nonzero"/>
	<path id="Path 372" d="M203.35 67.31C203.5 67.23 203.61 67.23 203.69 67.31C203.77 67.39 203.82 67.48 203.86 67.58L204.96 72.14L206.06 66.32C206.1 66.16 206.15 66 206.22 65.86C206.29 65.7 206.41 65.56 206.56 65.48L208.41 64.41C208.44 64.38 208.49 64.36 208.53 64.36C208.58 64.36 208.62 64.38 208.66 64.41C208.73 64.5 208.77 64.62 208.76 64.74C208.76 64.81 208.76 64.87 208.76 64.94L206.39 76.89C206.35 77.05 206.3 77.21 206.24 77.36C206.17 77.52 206.05 77.65 205.9 77.74L204.21 78.72C204.06 78.8 203.95 78.8 203.88 78.72C203.81 78.63 203.75 78.53 203.72 78.42L202.66 74.23L201.61 79.65C201.57 79.82 201.51 79.98 201.44 80.13C201.38 80.29 201.26 80.42 201.12 80.5L199.42 81.49C199.27 81.57 199.17 81.57 199.09 81.49C199.01 81.4 198.96 81.3 198.93 81.19L196.57 71.96C196.57 71.91 196.57 71.85 196.57 71.79C196.57 71.63 196.6 71.48 196.68 71.34C196.73 71.21 196.82 71.11 196.93 71.03L198.77 69.97C198.92 69.88 199.03 69.88 199.11 69.97C199.19 70.04 199.24 70.13 199.27 70.24L200.37 74.8L201.47 68.97C201.51 68.81 201.56 68.65 201.64 68.51C201.71 68.35 201.82 68.22 201.98 68.13L203.35 67.31Z" fill="#455A64" fill-opacity="1.000000" fill-rule="nonzero"/>
	<path id="Path 373" d="M216.18 59.89C216.33 59.8 216.44 59.8 216.52 59.89C216.6 59.96 216.65 60.06 216.68 60.16L217.78 64.71L218.88 58.89C218.91 58.73 218.97 58.58 219.04 58.43C219.12 58.27 219.23 58.14 219.38 58.05L221.23 56.99C221.26 56.96 221.31 56.94 221.36 56.94C221.4 56.94 221.45 56.96 221.48 56.99C221.56 57.08 221.59 57.2 221.58 57.31C221.59 57.38 221.59 57.44 221.58 57.5L219.22 69.46C219.19 69.62 219.14 69.78 219.06 69.94C219 70.1 218.88 70.23 218.73 70.32L217.04 71.29C216.89 71.38 216.78 71.38 216.71 71.29C216.64 71.2 216.58 71.1 216.54 70.99L215.49 66.8L214.44 72.22C214.39 72.38 214.34 72.54 214.27 72.7C214.21 72.86 214.09 72.99 213.95 73.07L212.25 74.05C212.1 74.13 211.99 74.14 211.92 74.05C211.84 73.97 211.79 73.87 211.77 73.75L209.4 64.53C209.4 64.47 209.4 64.41 209.4 64.36C209.4 64.2 209.43 64.04 209.5 63.9C209.56 63.78 209.64 63.68 209.75 63.6L211.59 62.54C211.74 62.46 211.86 62.45 211.94 62.54C212.02 62.62 212.07 62.71 212.1 62.81L213.2 67.37L214.3 61.54C214.34 61.38 214.4 61.23 214.47 61.08C214.54 60.92 214.66 60.79 214.81 60.7L216.18 59.89Z" fill="#455A64" fill-opacity="1.000000" fill-rule="nonzero"/>
	<path id="Path 374" d="M229.04 52.46C229.19 52.37 229.3 52.37 229.38 52.46C229.46 52.54 229.52 52.63 229.55 52.73L230.65 57.29L231.75 51.46C231.79 51.3 231.84 51.15 231.91 51.01C231.98 50.84 232.1 50.71 232.25 50.62L234.1 49.56C234.13 49.53 234.18 49.51 234.22 49.51C234.27 49.51 234.31 49.53 234.35 49.56C234.42 49.65 234.46 49.77 234.45 49.89C234.45 49.95 234.45 50.01 234.45 50.08L232.09 62.03C232.06 62.19 232 62.36 231.93 62.51C231.86 62.67 231.75 62.8 231.59 62.88L229.9 63.86C229.75 63.95 229.64 63.95 229.58 63.86C229.51 63.77 229.45 63.67 229.41 63.56L228.34 59.4L227.29 64.82C227.25 64.98 227.2 65.14 227.13 65.3C227.06 65.46 226.95 65.59 226.8 65.67L225.1 66.65C224.96 66.74 224.85 66.74 224.77 66.65C224.7 66.56 224.64 66.46 224.62 66.35L222.26 57.12C222.25 57.06 222.25 57.01 222.26 56.95C222.26 56.79 222.29 56.64 222.37 56.5C222.42 56.37 222.51 56.27 222.62 56.2L224.46 55.13C224.61 55.04 224.72 55.04 224.8 55.13C224.88 55.21 224.93 55.3 224.96 55.4L226.06 59.96L227.16 54.14C227.2 53.98 227.25 53.82 227.32 53.68C227.39 53.52 227.51 53.38 227.66 53.3L229.04 52.46Z" fill="#455A64" fill-opacity="1.000000" fill-rule="nonzero"/>
	<path id="Path 375" d="M237.73 58.72C237.73 58.9 237.69 59.07 237.61 59.23C237.55 59.37 237.45 59.49 237.33 59.58L235.39 60.69C235.35 60.73 235.3 60.75 235.24 60.75C235.19 60.75 235.14 60.73 235.1 60.69C235.06 60.65 235.02 60.59 235 60.52C234.98 60.46 234.97 60.39 234.98 60.33L234.98 57.31C234.98 57.13 235.02 56.96 235.1 56.81C235.16 56.66 235.26 56.54 235.39 56.46L237.33 55.34C237.37 55.3 237.42 55.28 237.47 55.28C237.52 55.28 237.57 55.3 237.61 55.34C237.65 55.38 237.69 55.44 237.71 55.51C237.73 55.57 237.74 55.64 237.73 55.7L237.73 58.72Z" fill="#455A64" fill-opacity="1.000000" fill-rule="nonzero"/>
	<path id="Path 376" d="M128.44 82.54L128.38 82.5L114.83 74.46L114.76 74.41C108.79 70.81 100.82 71.37 92.26 76.97C75.04 88.21 61.93 115.47 62.96 137.85C63.48 149.01 67.41 156.85 73.35 160.52L73.41 160.56L86.96 168.61L87.02 168.65C92.99 172.26 100.96 171.7 109.54 166.09C126.75 154.86 139.87 127.59 138.84 105.21C138.31 94.05 134.39 86.21 128.44 82.54Z" fill="#37474F" fill-opacity="1.000000" fill-rule="nonzero"/>
	<path id="Path 377" d="M86.52 168.33L73.4 160.56L73.34 160.51C67.39 156.84 63.46 148.99 62.95 137.85C62.49 127.87 64.85 116.92 69.11 106.86L69.2 106.64L82.67 114.91C78.4 124.97 76.05 135.91 76.51 145.9C77 156.82 80.78 164.57 86.52 168.33Z" fill="#263238" fill-opacity="1.000000" fill-rule="nonzero"/>
	<path id="Path 378" d="M109.54 166.09C126.75 154.86 139.87 127.59 138.84 105.21C137.82 82.83 123.02 73.78 105.81 85.02C88.6 96.26 75.47 123.52 76.51 145.91C77.54 168.3 92.33 177.33 109.54 166.09Z" fill="#455A64" fill-opacity="1.000000" fill-rule="nonzero"/>
	<path id="Path 379" d="M99.83 160.18C97.58 160.2 95.36 159.62 93.41 158.5C87.99 155.39 84.88 148.24 84.88 138.85C84.88 121.65 95.33 101.59 108.19 94.1C114.03 90.71 119.71 90.26 124.27 92.86C129.69 95.98 132.8 103.14 132.8 112.51C132.8 129.71 122.34 149.78 109.49 157.23C106.59 159.05 103.25 160.07 99.83 160.18ZM117.84 93.82C114.88 93.92 112 94.8 109.49 96.37C97.35 103.44 87.49 122.51 87.49 138.89C87.49 147.28 90.12 153.61 94.72 156.26C98.41 158.38 103.2 157.94 108.21 155.03C120.35 147.97 130.23 128.89 130.23 112.52C130.23 104.12 127.59 97.79 122.99 95.14C121.42 94.25 119.65 93.8 117.85 93.82L117.84 93.82Z" fill="#7D97FF" fill-opacity="1.000000" fill-rule="nonzero"/>
	<path id="Path 380" d="M99.82 117.17C97.01 117.19 94.28 116.25 92.08 114.51L93.28 112.98C97.25 116.08 102.59 115.95 108.35 112.6C114.31 109.13 119.91 102.7 124.13 94.5L125.86 95.39C121.48 103.92 115.61 110.63 109.33 114.28C106.47 116.06 103.19 117.06 99.82 117.17Z" fill="#7D97FF" fill-opacity="1.000000" fill-rule="nonzero"/>
	<path id="Path 381" d="M93.54 156.9L91.82 156.01C96.19 147.49 102.07 140.78 108.35 137.12C114.84 133.35 120.96 133.27 125.59 136.89L124.39 138.42C120.43 135.32 115.08 135.45 109.32 138.8C103.36 142.27 97.76 148.7 93.54 156.9Z" fill="#7D97FF" fill-opacity="1.000000" fill-rule="nonzero"/>
	<path id="Path 382" d="M106.33 157.87C105.41 157.86 104.5 157.61 103.7 157.13C99.14 154.51 96.3 145.04 96.3 132.43C96.3 115.04 101.6 98.35 108.35 94.42C109.18 93.87 110.15 93.57 111.14 93.54C112.13 93.52 113.12 93.77 113.97 94.27C118.54 96.9 121.38 106.36 121.38 118.97C121.38 136.36 116.08 153.06 109.33 156.99C108.42 157.54 107.39 157.84 106.33 157.87ZM111.35 95.48C110.62 95.5 109.92 95.71 109.31 96.1C103.3 99.59 98.23 116.23 98.23 132.43C98.23 145.78 101.46 153.61 104.66 155.47C105.22 155.8 105.87 155.96 106.52 155.93C107.17 155.91 107.8 155.7 108.34 155.33C114.35 151.83 119.42 135.19 119.42 118.99C119.42 105.64 116.19 97.81 112.99 95.95C112.49 95.65 111.93 95.49 111.35 95.48L111.35 95.48Z" fill="#7D97FF" fill-opacity="1.000000" fill-rule="nonzero"/>
	<path id="Rectangle 136" d="M107.87 95.26L109.81 95.26L109.81 156.15L107.87 156.15L107.87 95.26Z" fill="#7D97FF" fill-opacity="1.000000" fill-rule="evenodd"/>
	<path id="Rectangle 137" d="M84.88 137.74L129.98 111.52L130.95 113.19L85.85 139.41L84.88 137.74Z" fill="#7D97FF" fill-opacity="1.000000" fill-rule="evenodd"/>
	<path id="Path 383" d="M267.43 82.76C267.26 82.37 266.98 82.04 266.63 81.82L264.59 80.65C264.18 80.49 263.73 80.44 263.29 80.5C262.85 80.55 262.43 80.73 262.07 80.99L260.81 80.27C259.29 79.35 257.16 81.28 256.69 81.74L256.14 81.43C255.72 81.26 255.27 81.2 254.82 81.25C254.37 81.29 253.94 81.45 253.57 81.7L253.57 74.37C253.6 74.05 253.55 73.73 253.43 73.45C253.3 73.16 253.1 72.9 252.85 72.71L252.82 72.71L250.83 71.56C250.54 71.43 250.22 71.38 249.9 71.41C249.58 71.45 249.28 71.56 249.02 71.75C248.26 72.24 247.64 72.91 247.19 73.69C246.74 74.47 246.48 75.34 246.43 76.24L246.43 98.7C246.33 98.64 246.22 98.6 246.12 98.55C244.35 97.3 242.49 96.56 240.85 96.85C239.46 97.17 238.25 98.01 237.46 99.18C236.61 100.7 238.02 101.64 239.84 103.72C241.66 105.8 243.23 108.28 244.89 109.82C245.7 110.65 246.66 111.3 247.72 111.75L247.72 114.69L249.72 115.85L264.96 107.05L264.96 104.12C264.96 104.12 266.85 96.58 267.45 93.43C268.05 90.28 268.6 85.18 267.43 82.76Z" fill="#7D97FF" fill-opacity="1.000000" fill-rule="nonzero"/>
	<g opacity="0.800000">
		<path id="Path 384" d="M267.43 82.76C267.26 82.37 266.98 82.04 266.63 81.82L264.59 80.65C264.18 80.49 263.73 80.44 263.29 80.5C262.85 80.55 262.43 80.73 262.07 80.99L260.81 80.27C259.29 79.35 257.16 81.28 256.69 81.74L256.14 81.43C255.72 81.26 255.27 81.2 254.82 81.25C254.37 81.29 253.94 81.45 253.57 81.7L253.57 74.37C253.6 74.05 253.55 73.73 253.43 73.45C253.3 73.16 253.1 72.9 252.85 72.71L252.82 72.71L250.83 71.56C250.54 71.43 250.22 71.38 249.9 71.41C249.58 71.45 249.28 71.56 249.02 71.75C248.26 72.24 247.64 72.91 247.19 73.69C246.74 74.47 246.48 75.34 246.43 76.24L246.43 98.7C246.33 98.64 246.22 98.6 246.12 98.55C244.35 97.3 242.49 96.56 240.85 96.85C239.46 97.17 238.25 98.01 237.46 99.18C236.61 100.7 238.02 101.64 239.84 103.72C241.66 105.8 243.23 108.28 244.89 109.82C245.7 110.65 246.66 111.3 247.72 111.75L247.72 114.69L249.72 115.85L264.96 107.05L264.96 104.12C264.96 104.12 266.85 96.58 267.45 93.43C268.05 90.28 268.6 85.18 267.43 82.76Z" fill="#FFFFFF" fill-opacity="1.000000" fill-rule="nonzero"/>
	</g>
	<g opacity="0.200000">
		<path id="Path 385" d="M253.59 81.76L253.59 84.25C254.19 83.72 254.85 83.27 255.55 82.89L253.59 81.76ZM262.79 80.67C262.56 80.77 262.33 80.89 262.11 81.02L262.79 81.4C263.21 81.64 263.55 82.01 263.75 82.45C264.1 82.17 264.48 81.94 264.9 81.77L262.79 80.67ZM258.05 80.67C257.56 80.98 257.11 81.34 256.69 81.74L258.01 82.51C258.03 82.52 258.06 82.54 258.08 82.56C258.29 82.66 258.46 82.81 258.6 83C259.02 82.57 259.49 82.19 260 81.86L258.05 80.67ZM246.4 76.21L246.4 98.7C247.1 99.05 247.77 99.46 248.4 99.93L248.4 77.36L246.4 76.21ZM246.87 110.99C245.22 109.46 243.63 106.98 241.83 104.89C240.12 102.94 238.76 101.98 239.32 100.62L237.29 99.46C236.73 100.81 238.08 101.78 239.8 103.74C241.51 105.71 243.18 108.29 244.84 109.84C245.65 110.66 246.61 111.32 247.68 111.77L247.68 114.72L249.71 115.87L249.71 112.92C248.64 112.46 247.68 111.8 246.87 110.97L246.87 110.99Z" fill="#7D97FF" fill-opacity="1.000000" fill-rule="nonzero"/>
	</g>
	<g opacity="0.100000">
		<path id="Path 386" d="M253.59 81.76L253.59 84.25C254.19 83.72 254.85 83.27 255.55 82.89L253.59 81.76ZM262.79 80.67C262.56 80.77 262.33 80.89 262.11 81.02L262.79 81.4C263.21 81.64 263.55 82.01 263.75 82.45C264.1 82.17 264.48 81.94 264.9 81.77L262.79 80.67ZM258.05 80.67C257.56 80.98 257.11 81.34 256.69 81.74L258.01 82.51C258.03 82.52 258.06 82.54 258.08 82.56C258.29 82.66 258.46 82.81 258.6 83C259.02 82.57 259.49 82.19 260 81.86L258.05 80.67ZM246.4 76.21L246.4 98.7C247.1 99.05 247.77 99.46 248.4 99.93L248.4 77.36L246.4 76.21ZM246.87 110.99C245.22 109.46 243.63 106.98 241.83 104.89C240.12 102.94 238.76 101.98 239.32 100.62L237.29 99.46C236.73 100.81 238.08 101.78 239.8 103.74C241.51 105.71 243.18 108.29 244.84 109.84C245.65 110.66 246.61 111.32 247.68 111.77L247.68 114.72L249.71 115.87L249.71 112.92C248.64 112.46 247.68 111.8 246.87 110.97L246.87 110.99Z" fill="#000000" fill-opacity="1.000000" fill-rule="nonzero"/>
	</g>
	<path id="Path 387" d="M249.71 115.84L249.71 112.92C248.65 112.47 247.68 111.81 246.87 110.99C245.22 109.46 243.63 106.97 241.83 104.89C240.03 102.8 238.59 101.86 239.45 100.34C240.25 99.16 241.46 98.33 242.84 98.02C244.58 97.7 246.56 98.55 248.42 99.93L248.42 77.36C248.47 76.46 248.73 75.59 249.18 74.81C249.63 74.03 250.26 73.37 251.02 72.88C252.45 72.05 253.61 72.72 253.61 74.37L253.61 84.23C253.61 84.23 257.18 81.05 258.63 83C258.63 83 262.14 79.33 263.71 82.43C263.71 82.43 266.29 80.35 267.45 82.76C268.61 85.17 268.05 90.28 267.45 93.43C266.85 96.58 264.94 104.12 264.94 104.12L264.94 107.06L249.71 115.84Z" fill="#7D97FF" fill-opacity="1.000000" fill-rule="nonzero"/>
	<g opacity="0.650000">
		<path id="Path 388" d="M249.71 115.84L249.71 112.92C248.65 112.47 247.68 111.81 246.87 110.99C245.22 109.46 243.63 106.97 241.83 104.89C240.03 102.8 238.59 101.86 239.45 100.34C240.25 99.16 241.46 98.33 242.84 98.02C244.58 97.7 246.56 98.55 248.42 99.93L248.42 77.36C248.47 76.46 248.73 75.59 249.18 74.81C249.63 74.03 250.26 73.37 251.02 72.88C252.45 72.05 253.61 72.72 253.61 74.37L253.61 84.23C253.61 84.23 257.18 81.05 258.63 83C258.63 83 262.14 79.33 263.71 82.43C263.71 82.43 266.29 80.35 267.45 82.76C268.61 85.17 268.05 90.28 267.45 93.43C266.85 96.58 264.94 104.12 264.94 104.12L264.94 107.06L249.71 115.84Z" fill="#FFFFFF" fill-opacity="1.000000" fill-rule="nonzero"/>
	</g>
	<g opacity="0.100000">
		<g opacity="0.100000">
			<path id="Path 389" d="M253.59 88.46C253.59 88.46 253.91 83.96 255.56 82.89L255.51 82.89C254.82 83.26 254.18 83.7 253.59 84.2L253.59 84.12C253.58 84.14 253.58 84.17 253.59 84.2L253.59 88.46Z" fill="#000000" fill-opacity="1.000000" fill-rule="nonzero"/>
		</g>
		<g opacity="0.100000">
			<path id="Path 390" d="M258.6 83L258.6 87.11C258.6 87.11 259.06 82.88 260 81.86C259.5 82.19 259.03 82.57 258.6 83Z" fill="#000000" fill-opacity="1.000000" fill-rule="nonzero"/>
		</g>
		<g opacity="0.100000">
			<path id="Path 391" d="M263.69 82.44L263.69 86.56C263.69 86.56 263.95 82.4 264.84 81.82C264.43 81.97 264.05 82.18 263.69 82.44Z" fill="#000000" fill-opacity="1.000000" fill-rule="nonzero"/>
		</g>
	</g>
	<g opacity="0.150000">
		<path id="freepik--shadow--inject-2" d="M215.9 200.6C204.2 206.43 198.89 212.56 204.95 216.86C211 221.16 227.49 226.97 227.49 226.97L229.65 234.2L253.59 220.38L253.59 212.18C253.59 212.18 238.81 202.01 233.05 200.02C227.28 198.03 222.76 197.18 215.9 200.6Z" fill="#000000" fill-opacity="1.000000" fill-rule="nonzero"/>
	</g>
	<path id="Path 392" d="M248.92 237.68C248.92 237.68 245.31 246.55 245.12 250.04C244.93 253.68 244.05 254.89 244.66 258.85C244.8 259.71 245.25 261.44 245.34 262.14C245.37 262.27 245.38 262.41 245.36 262.54C245.34 262.68 245.3 262.81 245.23 262.92C245.16 263.04 245.07 263.14 244.96 263.22C244.86 263.31 244.73 263.36 244.6 263.4C244.54 263.42 244.47 263.43 244.4 263.43C242.82 263.76 240.2 260.79 238.94 257.56C237.68 253.83 236.66 250.03 235.87 246.17C235.8 245.29 235.98 244.41 236.37 243.62C236.56 243.16 236.81 242.71 237.09 242.3C237.61 240.71 237.86 237.7 238.3 235.61L248.92 237.68Z" fill="#FFA8A7" fill-opacity="1.000000" fill-rule="nonzero"/>
	<path id="Path 393" d="M232.75 249.49C232.54 249.86 232.4 250.27 232.32 250.68C232.32 251.41 233.93 253.81 234.57 254.68C235.48 255.86 235.91 257.34 235.76 258.82C235.78 261.2 236.64 263.5 238.19 265.31C240.26 267.8 243.03 269.61 246.14 270.51C249.98 271.68 251.34 269.76 251.34 269.76C251.34 269.76 252.52 267.91 251.81 267.15C251.1 266.39 232.75 249.49 232.75 249.49Z" fill="#263238" fill-opacity="1.000000" fill-rule="nonzero"/>
	<path id="Path 394" d="M237.07 242.33C236.95 242.33 236.74 242.3 236.44 242.66C236.33 242.79 235.63 244.52 235.04 245.43C234.46 246.34 232.94 248.06 232.74 249.53C233.63 252.37 236.3 254.35 236.7 257.04C237.1 259.73 237.15 262.84 241.27 266.13C245.4 269.43 249.65 269.76 251.17 268.88C252.7 268.01 252.53 266.38 250.43 263.27C248.18 259.97 246.65 252.81 246.65 252.8C246.46 251.8 246.32 250.78 246.25 249.76C246.27 248.75 246.37 247.74 246.54 246.74C246.62 246.28 246.55 245.81 246.35 245.39C246.06 245.02 245.66 244.74 245.21 244.6C244.53 244.28 243.82 244.04 243.09 243.88C242.35 243.73 241.59 243.82 240.91 244.15C240.47 244.46 240.02 244.75 239.55 245.01C239.21 245.15 238.84 245.19 238.48 245.13C238.13 245.06 237.79 244.9 237.52 244.66C237.25 244.44 237.05 244.15 236.95 243.81C236.85 243.48 236.86 243.12 236.97 242.79C236.99 242.64 237.03 242.48 237.07 242.33Z" fill="#455A64" fill-opacity="1.000000" fill-rule="nonzero"/>
	<path id="Path 395" d="M238.87 263.46C239.48 262.43 240.35 261.58 241.41 261.01C242.46 260.44 243.65 260.17 244.85 260.22C249.24 260.22 250.75 262.47 251.42 263.78C252.22 265.35 253.04 268.18 251.23 268.99C249.28 269.87 247.01 269.59 243.46 267.81C241.48 266.93 239.86 265.39 238.87 263.46Z" fill="#FAFAFA" fill-opacity="1.000000" fill-rule="nonzero"/>
	<path id="Path 396" d="M239.67 250.26C239.73 250.29 239.8 250.3 239.87 250.3C239.94 250.3 240.01 250.29 240.07 250.26C240.75 249.91 244.33 249.17 246.42 251.1C246.68 250.88 246.63 250.49 246.28 249.93C245.27 249.39 244.15 249.07 243.01 248.99C241.86 248.91 240.71 249.08 239.64 249.49C239.59 249.51 239.54 249.54 239.51 249.59C239.47 249.63 239.45 249.67 239.43 249.73C239.41 249.78 239.4 249.83 239.41 249.89C239.41 249.94 239.43 249.99 239.45 250.04C239.46 250.05 239.46 250.06 239.47 250.07C239.51 250.15 239.58 250.22 239.67 250.26Z" fill="#FAFAFA" fill-opacity="1.000000" fill-rule="nonzero"/>
	<path id="Path 397" d="M246.87 253.65C246.92 253.45 246.93 253.23 246.88 253.02C246.84 252.81 246.75 252.61 246.61 252.45C245.63 251.98 244.56 251.72 243.47 251.68C242.38 251.64 241.29 251.81 240.27 252.19C240.22 252.22 240.17 252.25 240.14 252.3C240.1 252.34 240.08 252.39 240.06 252.44C240.04 252.5 240.04 252.55 240.04 252.61C240.05 252.67 240.07 252.72 240.09 252.77C240.14 252.85 240.22 252.92 240.3 252.96C240.37 252.99 240.43 253.01 240.5 253.01C240.57 253.01 240.64 252.99 240.7 252.96C241.36 252.63 244.76 251.92 246.87 253.65Z" fill="#FAFAFA" fill-opacity="1.000000" fill-rule="nonzero"/>
	<path id="Path 398" d="M248.65 259.57C248.65 259 248.46 258.44 248.09 257.99C247.09 257.47 245.98 257.17 244.85 257.1C243.73 257.04 242.6 257.21 241.54 257.61C241.49 257.64 241.45 257.67 241.41 257.71C241.38 257.76 241.35 257.8 241.33 257.86C241.32 257.91 241.31 257.96 241.31 258.02C241.32 258.07 241.34 258.13 241.36 258.18L241.37 258.19C241.43 258.29 241.52 258.37 241.63 258.41C241.74 258.44 241.86 258.43 241.97 258.38C242.69 258.02 246.64 257.24 248.65 259.57Z" fill="#FAFAFA" fill-opacity="1.000000" fill-rule="nonzero"/>
	<path id="Path 399" d="M240.94 255.67C241 255.7 241.07 255.72 241.14 255.72C241.2 255.72 241.27 255.7 241.34 255.67C242.01 255.33 245.52 254.6 247.62 256.45C247.66 256.22 247.65 255.99 247.58 255.76C247.52 255.54 247.41 255.33 247.25 255.16C246.26 254.69 245.19 254.43 244.1 254.39C243.01 254.35 241.92 254.52 240.9 254.9C240.85 254.93 240.81 254.96 240.77 255.01C240.74 255.05 240.71 255.1 240.7 255.15C240.68 255.21 240.68 255.26 240.68 255.32C240.69 255.38 240.7 255.43 240.73 255.48C240.78 255.56 240.85 255.63 240.94 255.67Z" fill="#FAFAFA" fill-opacity="1.000000" fill-rule="nonzero"/>
	<path id="Path 400" d="M252.81 248.56C252.81 248.56 254.61 259.4 256.59 263.57C258.58 267.74 259.61 269.79 262.36 272.97C262.96 273.65 264.32 274.94 264.8 275.51C264.91 275.6 264.99 275.72 265.05 275.85C265.11 275.98 265.14 276.12 265.14 276.26C265.15 276.41 265.12 276.55 265.07 276.68C265.02 276.81 264.94 276.94 264.84 277.04C264.8 277.09 264.75 277.13 264.69 277.17C263.47 278.34 258.29 278.62 255.39 276.44C252.49 274.26 249.85 269.67 248.11 267.88C247.43 267.21 246.85 266.53 246.27 265.85C245.69 265.17 245.86 264.5 245.82 263.74L245.82 262.35C245.42 260.53 244.35 257.67 243.78 255.9L252.81 248.56Z" fill="#FFA8A7" fill-opacity="1.000000" fill-rule="nonzero"/>
	<path id="Path 401" d="M244.83 270.5C244.8 270.95 244.85 271.39 244.97 271.82C245.25 272.5 247.87 274.06 248.88 274.59C250.26 275.31 251.32 276.52 251.84 277.98C252.93 280.23 254.77 282.01 257.04 283.03C260.11 284.47 263.54 284.94 266.89 284.39C271.05 283.79 271.47 281.36 271.47 281.36C271.47 281.36 271.77 279.08 270.76 278.65C269.75 278.23 244.83 270.5 244.83 270.5Z" fill="#263238" fill-opacity="1.000000" fill-rule="nonzero"/>
	<path id="Path 402" d="M245.7 261.77C245.6 261.82 245.39 261.88 245.26 262.35C245.22 262.54 245.33 264.48 245.18 265.6C245.03 266.72 244.36 269.02 244.83 270.5C246.94 272.8 250.35 273.48 251.93 275.84C253.51 278.21 254.95 281.13 260.32 282.4C265.71 283.67 269.87 282.1 270.93 280.59C271.99 279.08 271.12 277.6 267.71 275.6C264.1 273.5 259.47 267.4 259.46 267.4C258.83 266.54 258.25 265.63 257.73 264.69C257.29 263.73 256.93 262.74 256.65 261.72C256.52 261.24 256.24 260.82 255.86 260.51C255.42 260.29 254.92 260.21 254.44 260.28C253.65 260.28 252.87 260.36 252.1 260.54C251.34 260.72 250.65 261.15 250.15 261.77C249.88 262.26 249.58 262.74 249.25 263.2C248.99 263.48 248.66 263.68 248.29 263.78C247.93 263.88 247.54 263.88 247.17 263.76C246.82 263.69 246.5 263.5 246.25 263.22C246.01 262.95 245.86 262.61 245.82 262.25C245.77 262.09 245.73 261.93 245.7 261.77Z" fill="#455A64" fill-opacity="1.000000" fill-rule="nonzero"/>
	<path id="Path 403" d="M256.87 280.98C256.98 279.74 257.44 278.54 258.18 277.53C258.92 276.52 259.93 275.73 261.08 275.25C265.24 273.31 267.68 274.74 268.89 275.69C270.34 276.81 272.39 279.12 271.04 280.7C269.58 282.4 267.32 283.15 263.15 283.06C260.88 283.11 258.66 282.38 256.87 280.98Z" fill="#FAFAFA" fill-opacity="1.000000" fill-rule="nonzero"/>
	<path id="Path 404" d="M251.72 268.13C251.79 268.13 251.87 268.12 251.93 268.09C252 268.06 252.05 268.01 252.1 267.96C252.58 267.32 255.64 265.01 258.48 265.92C258.64 265.6 258.41 265.24 257.83 264.87C256.63 264.81 255.43 265.01 254.31 265.45C253.19 265.89 252.18 266.56 251.34 267.43C251.27 267.51 251.24 267.63 251.25 267.74C251.26 267.85 251.32 267.96 251.41 268.03C251.42 268.04 251.43 268.04 251.44 268.05C251.52 268.11 251.62 268.14 251.72 268.13Z" fill="#FAFAFA" fill-opacity="1.000000" fill-rule="nonzero"/>
	<path id="Path 405" d="M260.05 268.13C260.01 267.91 259.92 267.7 259.78 267.53C259.65 267.35 259.47 267.2 259.27 267.1C258.13 267.1 257.01 267.34 255.96 267.78C254.91 268.23 253.96 268.88 253.17 269.7C253.13 269.74 253.11 269.79 253.09 269.85C253.08 269.91 253.08 269.97 253.08 270.02C253.09 270.08 253.11 270.14 253.14 270.19C253.17 270.24 253.21 270.28 253.25 270.31L253.27 270.33C253.35 270.39 253.45 270.42 253.55 270.41C253.62 270.42 253.69 270.4 253.76 270.37C253.82 270.34 253.88 270.29 253.93 270.23C254.38 269.62 257.28 267.43 260.05 268.13Z" fill="#FAFAFA" fill-opacity="1.000000" fill-rule="nonzero"/>
	<path id="Path 406" d="M264.39 272.94C264.13 272.39 263.69 271.95 263.15 271.69C261.96 271.65 260.79 271.86 259.69 272.3C258.59 272.74 257.6 273.41 256.78 274.26C256.74 274.3 256.72 274.35 256.7 274.41C256.69 274.47 256.68 274.53 256.69 274.58C256.7 274.64 256.72 274.7 256.75 274.75C256.78 274.79 256.81 274.84 256.86 274.87L256.88 274.89C256.96 274.94 257.06 274.97 257.16 274.97C257.23 274.98 257.3 274.96 257.37 274.93C257.43 274.9 257.49 274.85 257.54 274.79C258.05 274.13 261.43 271.59 264.39 272.94Z" fill="#FAFAFA" fill-opacity="1.000000" fill-rule="nonzero"/>
	<path id="Path 407" d="M255.35 272.69C255.42 272.69 255.49 272.68 255.55 272.65C255.62 272.62 255.67 272.57 255.72 272.51C256.2 271.89 259.2 269.63 262.01 270.45C261.94 270.21 261.83 269.99 261.67 269.81C261.51 269.63 261.31 269.48 261.09 269.38C259.95 269.39 258.82 269.62 257.77 270.07C256.73 270.51 255.78 271.16 254.99 271.98C254.95 272.02 254.92 272.07 254.91 272.13C254.89 272.19 254.89 272.24 254.9 272.3C254.9 272.35 254.92 272.41 254.95 272.46C254.98 272.51 255.02 272.55 255.06 272.59L255.08 272.6C255.16 272.66 255.25 272.69 255.35 272.69Z" fill="#FAFAFA" fill-opacity="1.000000" fill-rule="nonzero"/>
	<path id="Path 408" d="M228.96 186.99C233.39 190.24 248.83 199.15 255.1 204.95C256.91 206.63 257.51 208.83 257.06 213.65C256.46 220.18 251.33 242.42 251.33 242.42C250.62 243.67 249.38 241.29 249.38 241.29L224.91 210.24L228.96 186.99Z" fill="#7D97FF" fill-opacity="1.000000" fill-rule="nonzero"/>
	<g opacity="0.300000">
		<path id="Path 409" d="M228.96 186.99C233.39 190.24 248.83 199.15 255.1 204.95C256.91 206.63 257.51 208.83 257.06 213.65C256.46 220.18 251.33 242.42 251.33 242.42C250.62 243.67 249.38 241.29 249.38 241.29L224.91 210.24L228.96 186.99Z" fill="#000000" fill-opacity="1.000000" fill-rule="nonzero"/>
	</g>
	<g opacity="0.300000">
		<path id="Path 410" d="M250.27 235.49C244.61 230.75 226.32 201.91 226.32 201.91C228.81 199.81 230.1 192.51 230.1 192.51C231.08 195.32 230.04 199.57 229.28 201.12C230.71 202.37 238.85 209.05 244.5 213.53C246.24 214.72 247.44 216.55 247.86 218.61C249.03 224.72 250.4 234.25 250.27 235.49Z" fill="#000000" fill-opacity="1.000000" fill-rule="nonzero"/>
	</g>
	<path id="Path 411" d="M228.96 186.99L197.47 193.96C199.01 199.74 199.45 202.73 201.05 205.77C202.66 208.81 204.44 212.08 212.64 216.12C220.53 220 230.15 224 232.09 224.93C233.54 225.6 234.23 228.53 234.89 232.29C235.56 236.23 235.64 239.33 239.55 247.62C243.37 255.75 244.15 257.48 244.15 257.48C244.15 257.48 250.07 258.1 254 254.64C254 254.64 248.64 226.82 247.5 221.81C246.86 219.01 246.82 217.54 243.37 214.47C240.4 211.83 227.11 201.77 227.11 201.77C227.11 201.77 232.36 194.65 228.96 186.99Z" fill="#7D97FF" fill-opacity="1.000000" fill-rule="nonzero"/>
	<g opacity="0.300000">
		<path id="Path 412" d="M228.96 186.99L197.47 193.96C199.01 199.74 199.45 202.73 201.05 205.77C202.66 208.81 204.44 212.08 212.64 216.12C220.53 220 230.15 224 232.09 224.93C233.54 225.6 234.23 228.53 234.89 232.29C235.56 236.23 235.64 239.33 239.55 247.62C243.37 255.75 244.15 257.48 244.15 257.48C244.15 257.48 250.07 258.1 254 254.64C254 254.64 248.64 226.82 247.5 221.81C246.86 219.01 246.82 217.54 243.37 214.47C240.4 211.83 227.11 201.77 227.11 201.77C227.11 201.77 232.36 194.65 228.96 186.99Z" fill="#000000" fill-opacity="1.000000" fill-rule="nonzero"/>
	</g>
	<path id="Path 413" d="M265.16 134.67C264.62 134.64 264.08 134.75 263.59 134.99C263.03 135.29 262.5 135.63 262 136.03C261.21 136.61 260.41 137.15 259.59 137.67C258.88 138.2 258.07 138.58 257.22 138.8C256.93 138.85 256.3 138.85 256.62 138.41C257.06 137.86 257.46 137.27 257.8 136.64C257.97 136.34 258.07 136 258.1 135.65C258.14 135.3 258.09 134.94 257.98 134.61C257.91 134.41 257.77 134.24 257.58 134.13C257.3 134 257.16 134.13 257 134.33C256.83 134.51 256.64 134.69 256.45 134.85C256.05 135.2 255.66 135.53 255.27 135.89C253 137.93 250.25 139.74 249.27 142.71C248.72 144.54 248.45 146.45 248.47 148.37C248.47 151.63 248.26 163 248.26 163C248.26 163 239.23 155.4 235.32 152.16C233.43 150.58 230.8 148.66 227.87 148.38C225.84 148.19 224.61 148.2 224.61 148.2L230.77 163.1C230.77 163.1 242.4 171.76 247.99 174.74C253.02 177.45 255.47 175.5 256.09 174.07C257.1 171.72 258.12 170.62 256.71 157.57C256.61 156.56 256.48 153.67 256.36 152.65C256.22 150.55 256.46 148.41 257.28 147.95C258.8 147.13 260.23 146.16 261.55 145.05C262.41 144.31 263.17 143.46 263.8 142.51C264.16 142.09 264.42 141.59 264.57 141.05C264.52 140.56 264.52 140.05 264.57 139.55C264.67 139.23 264.9 138.95 264.98 138.61C265.02 137.85 265.21 137.11 265.54 136.43C265.8 136.09 266.22 135.75 266.16 135.36C266.11 135.2 266.02 135.05 265.89 134.94C265.76 134.83 265.6 134.75 265.44 134.73C265.34 134.71 265.25 134.69 265.16 134.67Z" fill="#FFA8A7" fill-opacity="1.000000" fill-rule="nonzero"/>
	<path id="Path 414" d="M255.95 140.34C255.62 142.1 254.81 143.73 253.6 145.04C254.43 144.55 255.12 143.85 255.6 143.01C255.86 142.62 256.02 142.18 256.08 141.72C256.15 141.25 256.1 140.78 255.95 140.34Z" fill="#F28F8F" fill-opacity="1.000000" fill-rule="nonzero"/>
	<path id="Path 415" d="M224.02 147.86C227.16 147.99 229.61 148.06 232.29 149.61C234.97 151.17 246.92 161.17 246.92 161.17C246.92 161.17 247.05 156.07 247.35 153.39C247.56 151.52 247.87 150.94 248.45 151.03C248.45 151.03 249.49 152.62 252.42 152.84C255.35 153.07 256.35 151.84 256.35 151.84C256.35 151.84 257.21 151.64 257.52 152.84C257.82 154.04 258.38 167.07 257.84 170.82C257.31 174.57 255.63 176.31 253.37 176.84C251.11 177.37 245.92 174.21 239.62 169.99C233.33 165.78 226.54 161.86 226.54 161.86L224.02 147.86Z" fill="#7D97FF" fill-opacity="1.000000" fill-rule="nonzero"/>
	<g opacity="0.700000">
		<path id="Path 416" d="M224.02 147.86C227.16 147.99 229.61 148.06 232.29 149.61C234.97 151.17 246.92 161.17 246.92 161.17C246.92 161.17 247.05 156.07 247.35 153.39C247.56 151.52 247.87 150.94 248.45 151.03C248.45 151.03 249.49 152.62 252.42 152.84C255.35 153.07 256.35 151.84 256.35 151.84C256.35 151.84 257.21 151.64 257.52 152.84C257.82 154.04 258.38 167.07 257.84 170.82C257.31 174.57 255.63 176.31 253.37 176.84C251.11 177.37 245.92 174.21 239.62 169.99C233.33 165.78 226.54 161.86 226.54 161.86L224.02 147.86Z" fill="#FFFFFF" fill-opacity="1.000000" fill-rule="nonzero"/>
	</g>
	<g opacity="0.100000">
		<path id="Path 417" d="M246.92 161.17C246.65 163.6 246.74 166.06 247.19 168.47C247.19 168.47 244.89 164.04 245.6 159.98L246.92 161.17Z" fill="#000000" fill-opacity="1.000000" fill-rule="nonzero"/>
	</g>
	<path id="Path 418" d="M198.2 150.61C197.68 153.32 192.47 179.44 198.4 198.89C209.08 200.15 227.84 195.24 230.65 188.18C230.65 188.18 228.76 181.47 227.94 178.18C228.11 172.8 227.94 162.53 227.83 159.36C227.61 153.06 226.63 148.19 223.51 147.73C223.51 147.73 217.23 147.49 213.44 147.64C210.16 147.77 207.69 147.81 207.69 147.81L198.2 150.61Z" fill="#FAFAFA" fill-opacity="1.000000" fill-rule="nonzero"/>
	<path id="Path 419" d="M213.88 192.07C213.2 190.53 200.51 182.71 200.51 182.71C200.51 182.71 200.71 179.08 201.46 172.41C202.21 165.73 202.45 157.74 200.04 153.72L197.61 153.82C196.26 161.92 193.45 182.69 198.39 198.89C204.09 199.56 212.08 198.47 218.72 196.25C217.5 195.43 214.43 193.29 213.88 192.07Z" fill="#F0F0F0" fill-opacity="1.000000" fill-rule="nonzero"/>
	<path id="Path 420" d="M206.59 141.69C206.59 140.33 204.02 136.31 202.85 133.11C200.89 127.78 200.72 122.99 205.56 120.91C205.56 120.91 208.58 115.7 216.2 115.44C223.82 115.18 229.67 121.61 227.14 130.21L206.59 141.69Z" fill="#455A64" fill-opacity="1.000000" fill-rule="nonzero"/>
	<path id="Path 421" d="M208.47 133.45C207.47 133.45 207.11 132.02 206.44 131.25C205.87 130.7 205.12 130.41 204.34 130.42C203.56 130.43 202.81 130.76 202.27 131.32C202.12 131.47 201.99 131.64 201.88 131.82C200.47 133.85 201.84 136.79 203.38 137.92C203.82 138.34 204.4 138.58 205.01 138.59C205.61 138.6 206.2 138.38 206.65 137.97L206.47 148.74C206.47 148.74 206.82 151.12 211.22 152.51C216.3 154.11 220.43 151.44 217.4 148.09L217.52 145.25C219.13 145.62 220.79 145.71 222.43 145.52C224.12 145.26 225.48 143.99 226.35 141.37C228.05 136.28 227.58 129.47 225.82 123.27C224.14 124.63 216.39 127.09 209.41 124.63C209.64 128.91 209.45 133.45 208.47 133.45Z" fill="#FFA8A7" fill-opacity="1.000000" fill-rule="nonzero"/>
	<path id="Path 422" d="M205.7 136.77C205.7 136.94 205.64 137.1 205.52 137.22C205.4 137.34 205.24 137.4 205.07 137.4C204.91 137.4 204.75 137.34 204.63 137.22C204.51 137.1 204.44 136.94 204.44 136.77C204.44 136.61 204.51 136.45 204.63 136.33C204.75 136.21 204.91 136.14 205.07 136.14C205.24 136.14 205.4 136.21 205.52 136.33C205.64 136.45 205.7 136.61 205.7 136.77Z" fill="#263238" fill-opacity="1.000000" fill-rule="nonzero"/>
	<path id="Path 423" d="M217.51 145.25C215.45 144.68 213.47 143.87 211.6 142.84C210.5 142.08 209.61 141.07 209 139.88C209.37 141.18 209.98 142.39 210.79 143.47C212.82 145.77 217.46 146.85 217.46 146.85L217.51 145.25Z" fill="#F28F8F" fill-opacity="1.000000" fill-rule="nonzero"/>
	<path id="Path 429" d="M226.29 123.28C228.64 121.61 229.94 119.38 229.32 116.3C228.4 117.22 225.84 117.39 223.6 116.3C220.07 114.46 216 113.87 212.09 114.64C207.95 115.44 205.52 118.59 205.52 120.9C206.33 122.56 207.45 123.44 209.37 124.61C212.26 126.7 215.79 127.72 219.36 127.48C221.5 127.43 223.56 126.69 225.24 125.36C224.15 125.47 223.06 125.3 222.06 124.88C223.57 124.64 225.01 124.09 226.29 123.28Z" fill="#37474F" fill-opacity="1.000000" fill-rule="nonzero"/>
	<g opacity="0.150000">
		<path id="Path 431" d="M256.08 206.1C255.8 205.68 255.47 205.3 255.1 204.95C251.34 201.47 244.26 196.86 238.25 193.03L210.91 208.82C210.85 208.85 210.81 208.91 210.79 208.97C210.77 209.04 210.78 209.11 210.82 209.16C210.84 209.2 210.87 209.23 210.91 209.25L230.77 220.72L256.08 206.1Z" fill="#000000" fill-opacity="1.000000" fill-rule="nonzero"/>
	</g>
	<path id="Path 432" d="M264.37 198.08L264.37 198.52C264.37 198.84 264.29 199.15 264.13 199.43C263.97 199.71 263.74 199.94 263.46 200.09L231.67 218.45C231.4 218.61 231.09 218.69 230.77 218.69C230.45 218.69 230.13 218.61 229.85 218.45L212.53 208.46C212.25 208.3 212.02 208.07 211.86 207.79C211.71 207.51 211.62 207.2 211.62 206.88L211.62 206.27C211.62 206.31 211.63 206.35 211.65 206.38C211.67 206.42 211.7 206.45 211.73 206.47L230.76 217.46L264.37 198.08Z" fill="#37474F" fill-opacity="1.000000" fill-rule="nonzero"/>
	<path id="Path 433" d="M230.77 217.48L230.77 218.7C231.08 218.7 231.4 218.61 231.67 218.45L263.46 200.1C263.74 199.94 263.97 199.71 264.13 199.43C264.29 199.16 264.37 198.84 264.37 198.53L264.37 198.08L230.77 217.48Z" fill="#263238" fill-opacity="1.000000" fill-rule="nonzero"/>
	<path id="Path 434" d="M264.37 198.08L245.52 187.19C245.36 187.1 245.17 187.05 244.98 187.05C244.79 187.05 244.6 187.1 244.44 187.19L211.74 206.08C211.71 206.09 211.69 206.12 211.67 206.14C211.65 206.17 211.64 206.2 211.63 206.23C211.62 206.26 211.62 206.29 211.62 206.32C211.63 206.35 211.64 206.38 211.65 206.41C211.67 206.45 211.7 206.48 211.74 206.5L230.76 217.48L264.37 198.08Z" fill="#455A64" fill-opacity="1.000000" fill-rule="nonzero"/>
	<path id="Path 435" d="M230.59 215.88L220.43 210.02L250.16 192.86L260.37 198.68L230.59 215.88Z" fill="#37474F" fill-opacity="1.000000" fill-rule="nonzero"/>
	<path id="Path 436" d="M260.37 198.68L259.99 198.91L250.15 193.3L220.81 210.24L220.43 210.02L250.15 192.85L260.37 198.68Z" fill="#263238" fill-opacity="1.000000" fill-rule="nonzero"/>
	<path id="Path 437" d="M225.6 199.57L225.79 199.68L230.77 202.55L239.63 197.44L239.81 197.33L234.64 194.35L225.6 199.57Z" fill="#263238" fill-opacity="1.000000" fill-rule="nonzero"/>
	<path id="Path 438" d="M225.78 199.68L230.76 202.55L239.62 197.44L234.64 194.57L225.78 199.68Z" fill="#37474F" fill-opacity="1.000000" fill-rule="nonzero"/>
	<path id="Path 439" d="M235.24 203.13C233.81 201.72 231.75 199.74 230.01 199.18C229.61 199.03 229.2 198.91 228.79 198.8C229.39 198.73 229.98 198.61 230.57 198.45C231.16 198.27 231.68 197.92 232.08 197.45C232.23 197.25 232.34 196.94 232.15 196.77C232.08 196.72 231.99 196.69 231.9 196.68C230.6 196.64 229.57 196.44 228.39 196.36C227.86 196.27 227.32 196.27 226.8 196.36C226.31 196.49 225.83 196.63 225.35 196.8C223.09 197.8 220.57 198.04 218.17 197.48L212.67 194.54C212.67 194.54 211.49 194.24 209.75 197.18C208.02 200.11 209.03 201.72 209.03 201.72L215.21 203.86L215.3 203.89C216.24 204.4 217.22 204.83 218.22 205.18C220.15 205.77 222.61 205.07 224.29 204.98C226.38 205.06 228.44 205.5 230.39 206.29C231.97 206.93 233.77 204.53 234.58 204.82C235.39 205.1 236.67 204.55 235.24 203.13Z" fill="#FFA8A7" fill-opacity="1.000000" fill-rule="nonzero"/>
	<path id="Path 440" d="M228.06 197.88C227.26 197.85 226.45 197.99 225.7 198.29C226.75 198.34 227.79 198.52 228.79 198.83C229.4 198.75 229.99 198.63 230.58 198.48C231.09 198.31 231.55 198.02 231.93 197.64C231 198.25 229.19 197.99 228.06 197.88Z" fill="#F28F8F" fill-opacity="1.000000" fill-rule="nonzero"/>
	<path id="Path 441" d="M198.2 150.61C199.76 151.23 201.8 157.76 200.54 164.04L197.63 183.68C197.63 183.68 201.2 185.8 206.21 188.9C209.68 191.06 212.66 193.03 212.66 194.62C210.39 195.43 208.34 199.62 209.03 201.8C207.48 203.64 193.14 195.7 188.13 192.27C185.81 190.68 184.63 190.05 185.53 182.88C186.52 174.94 187.2 166.12 188.75 160.23C190.36 154.07 192.15 151.69 198.2 150.61Z" fill="#7D97FF" fill-opacity="1.000000" fill-rule="nonzero"/>
	<g opacity="0.700000">
		<path id="Path 442" d="M198.2 150.61C199.76 151.23 201.8 157.76 200.54 164.04L197.63 183.68C197.63 183.68 201.2 185.8 206.21 188.9C209.68 191.06 212.66 193.03 212.66 194.62C210.39 195.43 208.34 199.62 209.03 201.8C207.48 203.64 193.14 195.7 188.13 192.27C185.81 190.68 184.63 190.05 185.53 182.88C186.52 174.94 187.2 166.12 188.75 160.23C190.36 154.07 192.15 151.69 198.2 150.61Z" fill="#FFFFFF" fill-opacity="1.000000" fill-rule="nonzero"/>
	</g>
	<path id="Path 443" d="M231.28 217.75C231.58 217.87 231.9 217.92 232.22 217.89C232.54 217.87 232.85 217.77 233.13 217.61L264.78 199.32C265.06 199.16 265.29 198.94 265.47 198.69C265.65 198.43 265.77 198.13 265.83 197.82L269.3 177.15C269.31 177.04 269.31 176.92 269.3 176.8C269.3 176.52 269.24 176.24 269.13 175.97C269.02 175.71 268.86 175.47 268.66 175.27L235.77 194.24C235.57 194.36 235.39 194.52 235.26 194.71C235.12 194.9 235.03 195.12 234.99 195.35L231.28 217.75Z" fill="#37474F" fill-opacity="1.000000" fill-rule="nonzero"/>
	<path id="Path 444" d="M230.77 217.48L230.98 217.61C231.08 217.66 231.18 217.71 231.28 217.75L235.02 195.39C235.06 195.16 235.15 194.94 235.29 194.75C235.42 194.56 235.6 194.4 235.8 194.28L268.69 175.31C268.56 175.18 268.41 175.07 268.25 174.97L235.29 194C235.09 194.12 234.91 194.28 234.78 194.47C234.65 194.66 234.56 194.88 234.52 195.11L230.77 217.48Z" fill="#455A64" fill-opacity="1.000000" fill-rule="nonzero"/>
	<path id="Path 445" d="M235.33 194.69L234.82 194.4C234.66 194.6 234.56 194.83 234.52 195.08L230.76 217.47L230.98 217.6C231.08 217.66 231.18 217.7 231.28 217.74L235.02 195.39C235.07 195.13 235.18 194.9 235.33 194.69Z" fill="#263238" fill-opacity="1.000000" fill-rule="nonzero"/>
	<path id="Path 446" d="M249.11 198.67C249.61 196.95 250.75 195.48 252.3 194.57C253.83 193.69 254.88 194.09 254.64 195.47C254.14 197.2 253.01 198.67 251.46 199.58C249.93 200.46 248.87 200.06 249.11 198.67Z" fill="#7D97FF" fill-opacity="1.000000" fill-rule="nonzero"/>
</svg>
