<svg width="377.719238" height="342.035400" viewBox="0 0 377.719 342.035" fill="none" xmlns="http://www.w3.org/2000/svg" xmlns:xlink="http://www.w3.org/1999/xlink">
	<desc>
			Created with Pixso.
	</desc>
	<defs>
		<linearGradient x1="326.451385" y1="62.078720" x2="79.462982" y2="342.586670" id="paint_linear_9_6077_0" gradientUnits="userSpaceOnUse">
			<stop stop-color="#DB5FDD"/>
			<stop offset="1.000000" stop-color="#4C13BF"/>
		</linearGradient>
		<linearGradient x1="2551.263672" y1="140.447418" x2="2452.815186" y2="257.209991" id="paint_linear_9_6146_0" gradientUnits="userSpaceOnUse">
			<stop stop-color="#FFC34E"/>
			<stop offset="1.000000" stop-color="#FB8627"/>
		</linearGradient>
		<linearGradient x1="2532.082520" y1="124.271515" x2="2433.666504" y2="240.967041" id="paint_linear_9_6147_0" gradientUnits="userSpaceOnUse">
			<stop stop-color="#FFC34E"/>
			<stop offset="1.000000" stop-color="#FB8627"/>
		</linearGradient>
		<linearGradient x1="2554.981934" y1="103.093575" x2="2487.349854" y2="224.027618" id="paint_linear_9_6151_0" gradientUnits="userSpaceOnUse">
			<stop stop-color="#FFC34E"/>
			<stop offset="1.000000" stop-color="#FB8627"/>
		</linearGradient>
		<linearGradient x1="2549.075684" y1="131.830444" x2="2444.054932" y2="256.380981" id="paint_linear_9_6152_0" gradientUnits="userSpaceOnUse">
			<stop stop-color="#FFC34E"/>
			<stop offset="1.000000" stop-color="#FB8627"/>
		</linearGradient>
	</defs>
	<path id="Path 447" d="M296.09 315.13L159.59 315.13C158.27 315.13 157 314.64 156.02 313.75C155.03 312.87 154.41 311.65 154.27 310.34L128.21 66.71C128.13 65.96 128.21 65.2 128.44 64.49C128.67 63.78 129.05 63.12 129.55 62.56C130.05 62 130.67 61.55 131.35 61.25C132.04 60.94 132.78 60.78 133.53 60.78L270.03 60.78C271.35 60.78 272.63 61.27 273.61 62.16C274.6 63.04 275.22 64.25 275.36 65.57L301.42 309.2C301.5 309.95 301.43 310.7 301.19 311.42C300.96 312.13 300.58 312.79 300.08 313.35C299.58 313.91 298.96 314.36 298.28 314.66C297.59 314.97 296.85 315.13 296.09 315.13Z" fill="#810A8B" fill-opacity="1.000000" fill-rule="nonzero"/>
	<path id="Path 448" d="M287.76 299.3L173.56 299.3C172.41 299.3 171.31 298.88 170.45 298.11C169.6 297.35 169.06 296.29 168.94 295.15L144.45 75.46C144.38 74.81 144.45 74.16 144.65 73.54C144.85 72.92 145.18 72.34 145.62 71.86C146.05 71.37 146.59 70.99 147.18 70.72C147.78 70.45 148.42 70.32 149.07 70.32L263.27 70.32C264.42 70.32 265.53 70.74 266.38 71.51C267.24 72.28 267.78 73.33 267.9 74.47L292.38 294.16C292.45 294.81 292.39 295.46 292.18 296.08C291.98 296.71 291.65 297.28 291.22 297.76C290.78 298.25 290.25 298.64 289.65 298.9C289.06 299.17 288.41 299.3 287.76 299.3Z" fill="url(#paint_linear_9_6077_0)" fill-opacity="1.000000" fill-rule="nonzero"/>
	<path id="Path 449" d="M196.92 203.6C196.92 204.98 196.65 206.35 196.12 207.63C195.59 208.91 194.81 210.07 193.83 211.05C192.86 212.03 191.69 212.8 190.41 213.33C189.14 213.86 187.77 214.14 186.38 214.14C183.59 214.14 180.91 213.03 178.93 211.05C176.95 209.07 175.84 206.39 175.84 203.6C175.84 200.8 176.95 198.12 178.93 196.15C180.91 194.17 183.59 193.06 186.38 193.06C189.18 193.06 191.86 194.17 193.83 196.15C195.81 198.12 196.92 200.8 196.92 203.6Z" fill="#F37168" fill-opacity="1.000000" fill-rule="nonzero"/>
	<path id="Path 450" d="M186.28 199.89C186.28 199.89 182.6 196.65 180 199.77C176.42 204.05 186.28 209.49 186.28 209.49C186.28 209.49 196.32 203.87 192.81 199.54C190.15 196.27 186.28 199.89 186.28 199.89Z" fill="#FFFFFF" fill-opacity="1.000000" fill-rule="nonzero"/>
	<path id="Path 451" d="M254.63 203.6C254.63 206.67 253.41 209.61 251.23 211.78C249.06 213.96 246.12 215.18 243.05 215.18C239.98 215.18 237.03 213.96 234.86 211.78C232.69 209.61 231.47 206.67 231.47 203.6C231.47 200.53 232.69 197.58 234.86 195.41C237.03 193.24 239.98 192.02 243.05 192.02C246.12 192.02 249.06 193.24 251.23 195.41C253.4 197.58 254.62 200.53 254.63 203.6Z" fill="#430A56" fill-opacity="1.000000" fill-rule="nonzero"/>
	<path id="Path 452" d="M242.79 195.97C244.29 195.76 245.59 199.49 245.48 200.68C245.37 201.87 248.28 200.53 249.67 201.56C251.07 202.6 250.66 207.98 249.67 208.34C248.69 208.71 244.72 208.76 243.45 208.08C242.8 207.7 242.06 207.51 241.31 207.54L240.65 201.9C241.27 201.68 241.84 201.33 242.32 200.89C243.2 200.11 242.79 195.97 242.79 195.97ZM236.11 209.17C236.47 209.48 240.56 210.46 240.77 208.39C240.98 206.32 239.94 201.92 239.94 201.92C239.94 201.92 237.09 201.78 236.11 202.28C235.73 202.48 235.75 208.86 236.11 209.17L236.11 209.17Z" fill="#FFFFFF" fill-opacity="1.000000" fill-rule="nonzero"/>
	<path id="Rectangle 138" d="M201.71 199.81L215.43 199.81C216.79 199.81 217.88 200.91 217.88 202.26L217.88 202.26C217.88 203.61 216.79 204.71 215.43 204.71L201.71 204.71C200.36 204.71 199.27 203.61 199.27 202.26L199.27 202.26C199.27 200.91 200.36 199.81 201.71 199.81Z" fill="#810A8B" fill-opacity="1.000000" fill-rule="evenodd"/>
	<path id="Rectangle 139" d="M201.71 206.16L215.43 206.16C216.79 206.16 217.88 207.26 217.88 208.61L217.88 208.61C217.88 209.96 216.79 211.06 215.43 211.06L201.71 211.06C200.36 211.06 199.27 209.96 199.27 208.61L199.27 208.61C199.27 207.26 200.36 206.16 201.71 206.16Z" fill="#810A8B" fill-opacity="1.000000" fill-rule="evenodd"/>
	<path id="Rectangle 140" d="M261.14 199.81L274.86 199.81C276.21 199.81 277.3 200.91 277.3 202.26L277.3 202.26C277.3 203.61 276.21 204.71 274.86 204.71L261.14 204.71C259.78 204.71 258.69 203.61 258.69 202.26L258.69 202.26C258.69 200.91 259.78 199.81 261.14 199.81Z" fill="#810A8B" fill-opacity="1.000000" fill-rule="evenodd"/>
	<path id="Rectangle 141" d="M261.14 206.16L274.86 206.16C276.21 206.16 277.3 207.26 277.3 208.61L277.3 208.61C277.3 209.96 276.21 211.06 274.86 211.06L261.14 211.06C259.78 211.06 258.69 209.96 258.69 208.61L258.69 208.61C258.69 207.26 259.78 206.16 261.14 206.16Z" fill="#810A8B" fill-opacity="1.000000" fill-rule="evenodd"/>
	<path id="Path 453" d="M273.99 239.93L184.55 239.93C184.02 239.93 183.51 239.72 183.14 239.34C182.76 238.97 182.55 238.46 182.55 237.93C182.55 237.4 182.76 236.89 183.14 236.52C183.51 236.14 184.02 235.93 184.55 235.93L273.99 235.93C274.52 235.93 275.03 236.14 275.4 236.52C275.78 236.89 275.99 237.4 275.99 237.93C275.99 238.46 275.78 238.97 275.4 239.34C275.03 239.72 274.52 239.93 273.99 239.93Z" fill="#810A8B" fill-opacity="1.000000" fill-rule="nonzero"/>
	<path id="Path 454" d="M275.31 247.48L185.87 247.48C185.34 247.48 184.83 247.27 184.45 246.89C184.08 246.52 183.87 246.01 183.87 245.48C183.87 244.95 184.08 244.44 184.45 244.07C184.83 243.69 185.34 243.48 185.87 243.48L275.31 243.48C275.84 243.48 276.34 243.69 276.72 244.07C277.09 244.44 277.3 244.95 277.31 245.48C277.3 246.01 277.09 246.52 276.72 246.89C276.34 247.27 275.84 247.48 275.31 247.48Z" fill="#810A8B" fill-opacity="1.000000" fill-rule="nonzero"/>
	<path id="Path 455" d="M261.7 255.68L172.26 255.68C171.73 255.68 171.22 255.47 170.85 255.09C170.47 254.72 170.26 254.21 170.26 253.68C170.26 253.15 170.47 252.64 170.85 252.27C171.22 251.89 171.73 251.68 172.26 251.68L261.7 251.68C262.23 251.68 262.74 251.89 263.11 252.27C263.49 252.64 263.7 253.15 263.7 253.68C263.7 254.21 263.49 254.72 263.11 255.09C262.74 255.47 262.23 255.68 261.7 255.68Z" fill="#810A8B" fill-opacity="1.000000" fill-rule="nonzero"/>
	<path id="Path 456" d="M160.38 315.13L155.56 315.13C154.68 315.13 153.83 314.8 153.18 314.21C152.52 313.63 152.11 312.82 152.01 311.94L124.91 65.13C124.85 64.58 124.91 64.03 125.08 63.5C125.24 62.98 125.52 62.5 125.89 62.09C126.25 61.68 126.7 61.35 127.21 61.13C127.71 60.9 128.25 60.79 128.8 60.79L132.93 60.79C133.9 60.79 134.83 61.14 135.54 61.78C136.26 62.43 136.72 63.31 136.82 64.27L163.93 311.16C163.98 311.66 163.93 312.17 163.78 312.64C163.63 313.12 163.37 313.56 163.04 313.94C162.7 314.31 162.29 314.61 161.84 314.81C161.38 315.02 160.88 315.13 160.38 315.13Z" fill="#430A56" fill-opacity="1.000000" fill-rule="nonzero"/>
	<path id="Path 457" d="M254.69 308.12L230.38 308.12C230.03 308.12 229.68 307.97 229.43 307.72C229.18 307.47 229.03 307.12 229.03 306.77C229.03 306.41 229.18 306.07 229.43 305.81C229.68 305.56 230.03 305.42 230.38 305.42L254.69 305.42C255.05 305.42 255.39 305.56 255.65 305.81C255.9 306.07 256.04 306.41 256.04 306.77C256.04 307.12 255.9 307.47 255.65 307.72C255.39 307.97 255.05 308.12 254.69 308.12Z" fill="#0F2D5C" fill-opacity="1.000000" fill-rule="nonzero"/>
	<path id="Ellipse 3" d="M228.69 65.6C228.69 66.56 227.91 67.33 226.95 67.33C225.99 67.33 225.22 66.56 225.22 65.6C225.22 64.64 225.99 63.86 226.95 63.86C227.91 63.86 228.69 64.64 228.69 65.6Z" fill="#0F2D5C" fill-opacity="1.000000" fill-rule="evenodd"/>
	<path id="Ellipse 4" d="M235.49 65.6C235.49 66.56 234.71 67.33 233.76 67.33C232.8 67.33 232.02 66.56 232.02 65.6C232.02 64.64 232.8 63.86 233.76 63.86C234.71 63.86 235.49 64.64 235.49 65.6Z" fill="#0F2D5C" fill-opacity="1.000000" fill-rule="evenodd"/>
	<path id="Path 458" d="M216.15 67.33L197.47 67.33C197.01 67.33 196.57 67.15 196.25 66.82C195.92 66.5 195.74 66.06 195.74 65.6C195.74 65.14 195.92 64.7 196.25 64.37C196.57 64.05 197.01 63.87 197.47 63.86L216.15 63.86C216.61 63.87 217.05 64.05 217.37 64.37C217.7 64.7 217.88 65.14 217.88 65.6C217.88 66.06 217.7 66.5 217.37 66.82C217.05 67.15 216.61 67.33 216.15 67.33Z" fill="#0F2D5C" fill-opacity="1.000000" fill-rule="nonzero"/>
	<path id="Rectangle 142" d="M87.96 223.99L235.01 223.99C239.43 223.99 243.01 227.57 243.01 231.99L243.01 309.79C243.01 314.21 239.43 317.79 235.01 317.79L87.96 317.79C83.54 317.79 79.96 314.21 79.96 309.79L79.96 231.99C79.96 227.57 83.54 223.99 87.96 223.99Z" fill="#0F2D5C" fill-opacity="1.000000" fill-rule="evenodd"/>
	<path id="Rectangle 143" d="M91.15 228.12L231.82 228.12C234.03 228.12 235.82 229.91 235.82 232.12L235.82 309.66C235.82 311.87 234.03 313.66 231.82 313.66L91.15 313.66C88.94 313.66 87.15 311.87 87.15 309.66L87.15 232.12C87.15 229.91 88.94 228.12 91.15 228.12Z" fill="#7A1999" fill-opacity="1.000000" fill-rule="evenodd"/>
	<g opacity="0.400000">
		<g opacity="0.400000">
			<g opacity="0.400000">
				<path id="Path 459" d="M159.49 296.99C151.52 296.98 143.88 293.81 138.25 288.18C132.61 282.55 129.44 274.91 129.43 266.94C129.44 258.97 132.61 251.34 138.25 245.7C143.88 240.07 151.52 236.9 159.49 236.89C167.45 236.9 175.09 240.07 180.73 245.7C186.36 251.34 189.53 258.97 189.54 266.94C189.53 274.91 186.36 282.55 180.73 288.18C175.09 293.81 167.45 296.98 159.49 296.99ZM159.49 240.89C152.58 240.9 145.96 243.65 141.07 248.53C136.19 253.41 133.44 260.04 133.44 266.94C133.44 273.85 136.19 280.47 141.07 285.35C145.96 290.24 152.58 292.98 159.49 292.99C166.39 292.98 173.01 290.24 177.9 285.35C182.78 280.47 185.53 273.85 185.54 266.94C185.53 260.04 182.78 253.41 177.9 248.53C173.01 243.65 166.39 240.9 159.49 240.89L159.49 240.89Z" fill="#FFFFFF" fill-opacity="1.000000" fill-rule="nonzero"/>
			</g>
		</g>
	</g>
	<g opacity="0.400000">
		<path id="Path 460" d="M174.65 263.61C175.23 263.95 175.72 264.44 176.06 265.02C176.39 265.6 176.57 266.27 176.57 266.94C176.57 267.62 176.39 268.28 176.06 268.86C175.72 269.45 175.23 269.93 174.65 270.27L165.19 275.73L155.73 281.19C155.15 281.53 154.49 281.71 153.81 281.71C153.14 281.71 152.47 281.53 151.89 281.19C151.3 280.85 150.82 280.37 150.48 279.79C150.14 279.2 149.97 278.54 149.97 277.86L149.97 256.01C149.97 255.34 150.14 254.68 150.48 254.09C150.82 253.51 151.3 253.02 151.89 252.68C152.47 252.35 153.14 252.17 153.81 252.17C154.49 252.17 155.15 252.35 155.73 252.68L165.19 258.15L174.65 263.61Z" fill="#FFFFFF" fill-opacity="1.000000" fill-rule="nonzero"/>
	</g>
	<g opacity="0.400000">
		<path id="Path 461" d="M103.44 304.6C103.58 304.68 103.7 304.8 103.78 304.94C103.87 305.09 103.91 305.25 103.91 305.42C103.91 305.58 103.87 305.74 103.78 305.89C103.7 306.03 103.58 306.15 103.44 306.23L101.11 307.58L98.79 308.92C98.64 309 98.48 309.04 98.32 309.04C98.15 309.04 97.99 309 97.84 308.92C97.7 308.84 97.58 308.72 97.5 308.57C97.41 308.43 97.37 308.27 97.37 308.1L97.37 302.73C97.37 302.57 97.41 302.4 97.5 302.26C97.58 302.12 97.7 302 97.84 301.91C97.99 301.83 98.15 301.79 98.32 301.79C98.48 301.79 98.64 301.83 98.79 301.91L101.11 303.26L103.44 304.6Z" fill="#FFFFFF" fill-opacity="1.000000" fill-rule="nonzero"/>
	</g>
	<g opacity="0.400000">
		<path id="Path 462" d="M111.87 309.05C111.7 309.05 111.54 308.98 111.42 308.86C111.3 308.74 111.24 308.58 111.23 308.41L111.23 302.41C111.24 302.24 111.3 302.08 111.42 301.96C111.54 301.85 111.7 301.78 111.87 301.78C112.04 301.78 112.2 301.85 112.32 301.96C112.44 302.08 112.5 302.24 112.5 302.41L112.5 308.41C112.5 308.58 112.44 308.74 112.32 308.86C112.2 308.98 112.04 309.05 111.87 309.05Z" fill="#FFFFFF" fill-opacity="1.000000" fill-rule="nonzero"/>
	</g>
	<g opacity="0.400000">
		<path id="Path 463" d="M114.72 309.05C114.55 309.05 114.39 308.98 114.27 308.86C114.15 308.74 114.08 308.58 114.08 308.41L114.08 302.41C114.08 302.24 114.15 302.08 114.27 301.96C114.39 301.85 114.55 301.78 114.72 301.78C114.89 301.78 115.05 301.85 115.17 301.96C115.28 302.08 115.35 302.24 115.35 302.41L115.35 308.41C115.35 308.58 115.28 308.74 115.17 308.86C115.05 308.98 114.89 309.05 114.72 309.05Z" fill="#FFFFFF" fill-opacity="1.000000" fill-rule="nonzero"/>
	</g>
	<g opacity="0.400000">
		<path id="Path 464" d="M221.07 304.69L221.07 304.23C221.07 303.95 221.18 303.68 221.38 303.48C221.58 303.28 221.85 303.17 222.13 303.17L222.68 303.17L222.68 301.78L221.4 301.78C220.95 301.78 220.51 301.97 220.19 302.29C219.86 302.61 219.68 303.05 219.68 303.5L219.68 304.69L221.07 304.69Z" fill="#FFFFFF" fill-opacity="1.000000" fill-rule="nonzero"/>
	</g>
	<g opacity="0.400000">
		<path id="Path 465" d="M225.56 305.96L225.56 306.6C225.56 306.88 225.45 307.15 225.25 307.35C225.05 307.55 224.78 307.66 224.5 307.66L223.95 307.66L223.95 309.05L225.23 309.05C225.68 309.05 226.12 308.87 226.44 308.54C226.77 308.22 226.95 307.78 226.95 307.33L226.95 305.96L225.56 305.96Z" fill="#FFFFFF" fill-opacity="1.000000" fill-rule="nonzero"/>
	</g>
	<g opacity="0.400000">
		<path id="Path 466" d="M223.95 303.16L224.5 303.16C224.78 303.16 225.05 303.28 225.25 303.48C225.45 303.68 225.56 303.95 225.56 304.23L225.56 304.69L226.95 304.69L226.95 303.5C226.95 303.04 226.76 302.61 226.44 302.28C226.12 301.96 225.68 301.78 225.23 301.78L223.95 301.78L223.95 303.16Z" fill="#FFFFFF" fill-opacity="1.000000" fill-rule="nonzero"/>
	</g>
	<g opacity="0.400000">
		<path id="Path 467" d="M222.68 307.66L222.13 307.66C221.99 307.66 221.85 307.64 221.72 307.58C221.6 307.53 221.48 307.45 221.38 307.35C221.28 307.25 221.2 307.14 221.15 307.01C221.09 306.88 221.07 306.74 221.07 306.6L221.07 305.96L219.68 305.96L219.68 307.33C219.68 307.78 219.87 308.22 220.19 308.54C220.51 308.87 220.95 309.05 221.4 309.05L222.68 309.05L222.68 307.66Z" fill="#FFFFFF" fill-opacity="1.000000" fill-rule="nonzero"/>
	</g>
	<g opacity="0.400000">
		<path id="Path 468" d="M203.21 304.69L130.1 304.69C129.94 304.21 129.64 303.78 129.23 303.48C128.82 303.18 128.32 303.02 127.81 303.02C127.3 303.02 126.81 303.18 126.4 303.48C125.99 303.78 125.68 304.21 125.53 304.69L123.44 304.69C123.25 304.69 123.06 304.77 122.92 304.91C122.79 305.04 122.71 305.23 122.71 305.42C122.71 305.62 122.79 305.8 122.92 305.94C123.06 306.08 123.25 306.16 123.44 306.16L125.53 306.16C125.68 306.64 125.99 307.06 126.4 307.36C126.81 307.66 127.3 307.82 127.81 307.82C128.32 307.82 128.82 307.66 129.23 307.36C129.64 307.06 129.94 306.64 130.1 306.16L203.21 306.16C203.41 306.16 203.59 306.08 203.73 305.94C203.87 305.8 203.95 305.62 203.95 305.42C203.95 305.23 203.87 305.04 203.73 304.91C203.59 304.77 203.41 304.69 203.21 304.69Z" fill="#FFFFFF" fill-opacity="1.000000" fill-rule="nonzero"/>
	</g>
	<g opacity="0.400000">
		<path id="Path 469" d="M208.44 303.02L206.84 303.02L206.84 308.12L208.44 308.12L211.24 310.48L211.24 300.66L208.44 303.02Z" fill="#FFFFFF" fill-opacity="1.000000" fill-rule="nonzero"/>
	</g>
	<g opacity="0.400000">
		<path id="Path 470" d="M214.22 305.43L214.69 304.95C214.77 304.88 214.81 304.77 214.81 304.66C214.81 304.55 214.77 304.44 214.69 304.36C214.61 304.29 214.51 304.24 214.4 304.24C214.29 304.24 214.18 304.29 214.1 304.36L213.63 304.84L213.16 304.36C213.08 304.29 212.97 304.24 212.86 304.24C212.75 304.24 212.65 304.29 212.57 304.36C212.49 304.44 212.45 304.55 212.45 304.66C212.45 304.77 212.49 304.88 212.57 304.95L213.04 305.43L212.57 305.9C212.49 305.98 212.45 306.08 212.45 306.19C212.45 306.3 212.49 306.41 212.57 306.49C212.65 306.57 212.75 306.61 212.86 306.61C212.97 306.61 213.08 306.57 213.16 306.49L213.63 306.01L214.1 306.49C214.18 306.57 214.29 306.61 214.4 306.61C214.51 306.61 214.61 306.57 214.69 306.49C214.77 306.41 214.81 306.3 214.81 306.19C214.81 306.08 214.77 305.98 214.69 305.9L214.22 305.43Z" fill="#FFFFFF" fill-opacity="1.000000" fill-rule="nonzero"/>
	</g>
	<path id="Path 471" d="M360.91 328.17C360.91 328.17 372.79 329.49 375.62 328.17C378.45 326.85 379.39 329.9 372.04 333.56C364.68 337.22 361.48 340.05 359.03 339.11C356.58 338.17 354.88 333.43 355.26 330.71C355.63 327.98 360.91 328.17 360.91 328.17Z" fill="#0F2D5C" fill-opacity="1.000000" fill-rule="nonzero"/>
	<path id="Path 472" d="M307.55 326.66C307.55 326.66 306.98 335.71 309.81 337.6C312.64 339.48 316.07 342.03 309.43 342.03C302.8 342.03 301.03 338.92 298.96 335.71C296.88 332.51 294.73 330.02 297.68 327.86C300.63 325.69 300.76 323.64 301.32 323.64C301.89 323.64 307.55 326.66 307.55 326.66Z" fill="#0F2D5C" fill-opacity="1.000000" fill-rule="nonzero"/>
	<path id="Path 473" d="M346.76 241.71C346.76 294.89 308.37 331.76 308.37 331.76C308.37 331.76 299.25 328.54 298.96 325.15C298.68 321.76 313.94 297.43 313.94 279.33L313.94 224.74L346.76 241.71Z" fill="#0E3A82" fill-opacity="1.000000" fill-rule="nonzero"/>
	<path id="Path 474" d="M313.94 224.74L313.94 269.86C319.88 283.3 323.26 297.72 323.92 312.4C334.57 296.47 346.76 271.68 346.76 241.71L313.94 224.74Z" fill="#0F2D5C" fill-opacity="1.000000" fill-rule="nonzero"/>
	<path id="Path 475" d="M313.95 215.69C313.1 260.1 351.7 332.22 354.35 333.35C357 334.48 364.5 330.72 364.07 327.98C353.83 262.93 351.85 219.65 351.85 219.65L313.95 215.69Z" fill="#0E3A82" fill-opacity="1.000000" fill-rule="nonzero"/>
	<path id="Path 476" d="M356.38 159.27C357 159.82 357.76 160.17 358.57 160.29C359.38 160.41 360.21 160.29 360.96 159.94C363.51 158.72 372.8 152.15 372.52 150.54C372.23 148.94 367.89 148.56 367.89 148.56C367.89 148.56 354.44 159.19 356.38 159.27Z" fill="#255096" fill-opacity="1.000000" fill-rule="nonzero"/>
	<path id="Path 477" d="M358.83 159.02C357.08 158.74 362.82 154.18 364.69 152.3C365.65 151.3 366.68 150.38 367.78 149.53C367.78 149.53 370.98 149.92 370.98 150.54C370.98 151.17 361.79 158.51 361.79 158.51C360.83 158.81 359.83 158.98 358.83 159.02Z" fill="#FFC34E" fill-opacity="1.000000" fill-rule="nonzero"/>
	<path id="Path 478" d="M347.57 167.23C347.57 167.23 350.92 161.57 352.52 160.06C354.13 158.56 359.54 155.63 360.36 155.61C361.76 155.58 355.54 159.78 355.54 159.78C355.54 159.78 356.39 165.25 355.63 167.23C354.88 169.21 346.96 171.85 346.96 171.85L347.57 167.23Z" fill="#F09959" fill-opacity="1.000000" fill-rule="nonzero"/>
	<path id="Path 479" d="M341.35 173.17C341.35 173.17 346.82 164.97 348.04 165.53C349.27 166.09 352.57 173.17 352.57 173.17C352.57 173.17 342.95 183.16 342.95 181.27C342.95 179.39 341.35 173.17 341.35 173.17Z" fill="#91D5FF" fill-opacity="1.000000" fill-rule="nonzero"/>
	<path id="Path 480" d="M326.23 129.24C326.23 129.24 320.57 149.22 316.8 157.52C313.03 165.82 311.14 181.28 311.9 208.43C312.66 235.59 307.37 234.83 315.29 238.23C323.21 241.62 351.5 235.97 355.27 227.29C359.04 218.62 352.75 183.3 343.39 170.34C334.16 157.55 330 153 330 149.98C330 146.96 333.65 134.14 333.65 134.14L326.23 129.24Z" fill="#F09959" fill-opacity="1.000000" fill-rule="nonzero"/>
	<path id="Path 481" d="M355.27 227.29C359.04 218.62 352.74 183.3 343.39 170.34C339.09 164.39 335.89 160.22 333.7 157.15C329.25 154.4 324.5 152.19 319.53 150.54C318.58 153.22 317.64 155.66 316.8 157.52C313.03 165.82 311.14 181.28 311.9 208.44C312.65 235.59 307.37 234.84 315.29 238.23C323.21 241.62 351.5 235.97 355.27 227.29Z" fill="#B3E2FF" fill-opacity="1.000000" fill-rule="nonzero"/>
	<path id="Path 482" d="M316.17 146.96C316.26 145.41 336.41 153.38 336.53 154.88C337.01 158.41 338.01 161.83 339.52 165.05C341.18 168.08 311.47 185.02 312.56 176.77C313.65 168.53 315.92 151.11 316.17 146.96Z" fill="#B3E2FF" fill-opacity="1.000000" fill-rule="nonzero"/>
	<path id="Path 483" d="M330.02 150.31C330.01 150.2 330 150.09 330 149.98C330 146.96 333.65 134.14 333.65 134.14L326.23 129.24C326.23 129.24 324.91 133.88 323.13 139.61C325.44 146.49 327.6 148.85 330.02 150.31Z" fill="#E38540" fill-opacity="1.000000" fill-rule="nonzero"/>
	<path id="Path 484" d="M347.04 139.02C345.47 146.13 340.56 151.19 334.89 149.8C331.79 148.8 329.18 146.66 327.6 143.81C326.02 140.96 325.58 137.62 326.38 134.46C328.09 127.39 333.84 122.62 339.55 123.87C345.25 125.13 348.61 131.91 347.04 139.02Z" fill="#F09959" fill-opacity="1.000000" fill-rule="nonzero"/>
	<path id="Path 485" d="M353.48 185.29C358.63 176.4 359.2 168.09 362.85 165.5C367.99 161.85 372.2 153.69 370.34 153.37C368.49 153.05 360.96 159.94 360.96 159.94C360.96 159.94 362.92 157.26 362.45 157.04C361.98 156.82 358.19 159.57 357.6 162.82C357.02 166.07 349.74 181.01 343.63 185.79C337.52 190.58 348.33 194.19 353.48 185.29Z" fill="#F09959" fill-opacity="1.000000" fill-rule="nonzero"/>
	<path id="Path 486" d="M320.12 162.89C311 165.16 315.17 192.71 322.86 209.06C330.56 225.4 345.01 211.28 350.42 207.28C352.09 206.07 353.54 204.59 354.71 202.89C352.98 193.14 350 182.68 346.33 175.31C337.72 185.42 333.62 159.53 320.12 162.89Z" fill="#91D5FF" fill-opacity="1.000000" fill-rule="nonzero"/>
	<path id="Path 487" d="M322.86 160.91C311.39 162.06 317.67 190.7 326.06 202.27C334.45 213.83 346.39 202.65 350.16 195.98C353.93 189.32 361.57 177.99 361.57 170.62C361.57 169.24 358.74 168.95 355.35 169.21C352.15 169.44 337.71 189.32 337.71 189.32C337.71 189.32 332.89 159.9 322.86 160.91Z" fill="#B3E2FF" fill-opacity="1.000000" fill-rule="nonzero"/>
	<path id="Path 488" d="M350.54 124.2C357.56 127.16 353.35 136.5 349.66 136.85C345.96 137.2 341.68 130.38 339.48 130.15C337.28 129.92 339.93 133.96 337.97 134.89C336.92 135.32 335.98 135.98 335.22 136.83C334.47 137.67 333.92 138.68 333.62 139.78C333.05 142.21 331.49 147.49 334.04 147.72C336.59 147.95 339.37 145.18 341.1 145.06C342.2 145 343.29 145.13 344.34 145.45C344.34 145.45 339.94 151.54 336.7 151.88C333.47 152.23 329.94 147.5 327.43 143.51C324.92 139.51 325.98 136.85 325.98 136.85C325.98 136.85 323.41 139.75 321.79 139.51C320.18 139.28 324.22 136.97 324.34 130.15C324.45 123.33 327.46 119.75 331.16 119.75C334.86 119.75 334.4 117.87 340.05 118.02C345.14 118.14 348.89 123.51 350.54 124.2Z" fill="#0F2D5C" fill-opacity="1.000000" fill-rule="nonzero"/>
	<path id="Path 489" d="M335.11 138.14C335.28 139.9 334.37 141.42 333.09 141.54C331.81 141.65 330.65 140.32 330.48 138.56C330.32 136.8 331.22 135.28 332.5 135.16C333.78 135.05 334.95 136.38 335.11 138.14Z" fill="#F09959" fill-opacity="1.000000" fill-rule="nonzero"/>
	<path id="Path 490" d="M15.77 309.25C9.71 316 -1.63 314.99 0.19 317.9C2.01 320.81 10.16 320.07 14.75 319.82C22.38 319.42 20.27 315.05 20.87 313.49C21.48 311.93 15.77 309.25 15.77 309.25Z" fill="#0F2D5C" fill-opacity="1.000000" fill-rule="nonzero"/>
	<path id="Path 491" d="M67.18 213.79C67.18 213.79 29.33 242.87 29.85 248.84C30.37 254.81 57.75 304.63 60.02 304.64C62.3 304.65 67.46 302.09 68.23 300.91C69.01 299.72 66.71 265.23 63.86 261.71C61 258.19 85.74 222.88 85.74 222.88L67.18 213.79Z" fill="#0F2D5C" fill-opacity="1.000000" fill-rule="nonzero"/>
	<path id="Path 492" d="M100.07 207.56C100.07 207.56 108.72 227.29 103.68 232.74C98.64 238.2 80.97 242.23 75.02 251.18C61.94 270.85 61.78 284.79 43.87 299.86C25.95 314.93 20.8 315.3 20.8 315.3L14.79 310.03C14.79 310.03 34.78 282.85 42.57 261.04C50.36 239.23 70.87 213.53 70.87 213.53L100.07 207.56Z" fill="#0E3A82" fill-opacity="1.000000" fill-rule="nonzero"/>
	<path id="Path 493" d="M64.86 161.13C64.31 161.61 63.64 161.92 62.92 162.02C62.2 162.13 61.47 162.02 60.8 161.72C58.55 160.64 50.32 154.82 50.57 153.4C50.82 151.98 54.67 151.64 54.67 151.64C54.67 151.64 66.58 161.06 64.86 161.13Z" fill="#255096" fill-opacity="1.000000" fill-rule="nonzero"/>
	<path id="Path 494" d="M62.69 160.91C64.24 160.66 59.16 156.62 57.5 154.95C56.65 154.07 55.73 153.25 54.77 152.5C54.77 152.5 51.93 152.85 51.93 153.4C51.93 153.96 60.07 160.45 60.07 160.45C60.92 160.72 61.8 160.87 62.69 160.91Z" fill="#FFC34E" fill-opacity="1.000000" fill-rule="nonzero"/>
	<path id="Path 495" d="M72.66 168.17C72.66 168.17 69.69 163.16 68.27 161.83C66.86 160.49 62.06 157.9 61.34 157.89C60.09 157.86 65.6 161.58 65.6 161.58C65.6 161.58 64.85 166.42 65.52 168.18C66.19 169.94 73.2 172.27 73.2 172.27L72.66 168.17Z" fill="#F09959" fill-opacity="1.000000" fill-rule="nonzero"/>
	<path id="Path 496" d="M78.17 173.43C78.17 173.43 73.33 166.17 72.24 166.67C71.16 167.17 68.23 173.43 68.23 173.43C68.23 173.43 76.75 182.28 76.75 180.61C77.06 178.19 77.53 175.79 78.17 173.43Z" fill="#FB8627" fill-opacity="1.000000" fill-rule="nonzero"/>
	<path id="Path 497" d="M91.56 134.53C91.56 134.53 96.57 152.23 99.91 159.58C103.25 166.92 104.91 180.61 104.25 204.66C103.58 228.7 108.25 228.03 101.24 231.04C94.23 234.04 69.18 229.04 65.84 221.35C62.5 213.67 68.08 182.4 76.36 170.93C84.54 159.6 88.21 155.57 88.21 152.9C88.21 150.23 84.98 138.87 84.98 138.87L91.56 134.53Z" fill="#F09959" fill-opacity="1.000000" fill-rule="nonzero"/>
	<path id="Path 498" d="M65.84 221.35C62.51 213.67 68.08 182.41 76.36 170.93C80.17 165.66 83 161.96 84.94 159.25C88.88 156.82 93.09 154.85 97.49 153.4C98.33 155.77 99.16 157.93 99.9 159.58C103.24 166.92 104.91 180.61 104.25 204.66C103.58 228.7 108.25 228.03 101.24 231.04C94.23 234.04 69.18 229.03 65.84 221.35Z" fill="url(#paint_linear_9_6146_0)" fill-opacity="1.000000" fill-rule="nonzero"/>
	<path id="Path 499" d="M100.46 150.23C100.38 148.85 82.54 155.9 82.43 157.24C82.01 160.36 81.12 163.39 79.79 166.24C78.31 168.93 104.62 183.92 103.65 176.62C102.69 169.32 100.68 153.9 100.46 150.23Z" fill="url(#paint_linear_9_6147_0)" fill-opacity="1.000000" fill-rule="nonzero"/>
	<path id="Path 500" d="M88.2 153.2C88.21 153.1 88.22 153 88.22 152.9C88.22 150.23 84.99 138.87 84.99 138.87L91.56 134.53C91.56 134.53 92.72 138.64 94.3 143.72C92.26 149.82 90.35 151.9 88.2 153.2Z" fill="#E38540" fill-opacity="1.000000" fill-rule="nonzero"/>
	<path id="Path 501" d="M75.02 143.17C76.24 148.67 80.04 152.58 84.43 151.51C86.83 150.73 88.84 149.08 90.07 146.87C91.29 144.67 91.63 142.08 91.01 139.64C89.69 134.16 85.24 130.47 80.82 131.44C76.41 132.41 73.81 137.67 75.02 143.17Z" fill="#F09959" fill-opacity="1.000000" fill-rule="nonzero"/>
	<path id="Path 502" d="M67.43 184.17C62.87 176.29 62.36 168.94 59.13 166.64C54.58 163.41 50.85 156.19 52.5 155.9C54.14 155.62 60.8 161.72 60.8 161.72C60.8 161.72 59.07 159.35 59.48 159.15C59.9 158.95 63.25 161.39 63.78 164.27C64.3 167.14 70.74 180.37 76.15 184.61C81.56 188.84 71.99 192.04 67.43 184.17Z" fill="#F09959" fill-opacity="1.000000" fill-rule="nonzero"/>
	<path id="Path 503" d="M96.96 164.33C105.04 166.34 101.35 190.74 94.53 205.21C87.72 219.68 74.92 207.18 70.13 203.63C68.65 202.57 67.37 201.25 66.33 199.75C67.87 191.11 70.5 181.85 73.76 175.33C81.39 184.28 85.01 161.35 96.96 164.33Z" fill="url(#paint_linear_9_6151_0)" fill-opacity="1.000000" fill-rule="nonzero"/>
	<path id="Path 504" d="M94.54 162.58C104.7 163.59 99.14 188.96 91.7 199.2C84.27 209.44 73.7 199.53 70.36 193.63C67.02 187.73 60.26 177.7 60.26 171.17C60.26 169.95 62.76 169.7 65.77 169.92C68.6 170.13 81.39 187.73 81.39 187.73C81.39 187.73 85.65 161.69 94.54 162.58Z" fill="url(#paint_linear_9_6152_0)" fill-opacity="1.000000" fill-rule="nonzero"/>
	<path id="Path 505" d="M60.02 298.43C60.48 309.33 48.02 318.16 53.21 318.94C58.4 319.72 62.49 316.21 64.86 313.55C67.23 310.89 69.81 310.1 69.11 307.09C68.42 304.08 68.37 297.73 67.65 295.65C66.92 293.57 60.02 298.43 60.02 298.43Z" fill="#0F2D5C" fill-opacity="1.000000" fill-rule="nonzero"/>
	<path id="Path 506" d="M79.07 126.09C68.47 126.82 69.82 143.25 69.82 143.25C69.82 143.25 78.56 143.5 81.17 142.75C83.06 142.1 84.84 141.16 86.43 139.95C86.43 139.95 88.04 146.18 92.42 146.52L96.81 146.87C96.81 146.87 99.7 135.05 97.41 129.72C92.67 118.67 83.2 124.21 79.07 126.09Z" fill="#0F2D5C" fill-opacity="1.000000" fill-rule="nonzero"/>
	<path id="Path 507" d="M90.64 142C90.01 143.62 88.52 144.55 87.32 144.08C86.11 143.61 85.65 141.92 86.28 140.31C86.9 138.69 88.39 137.76 89.59 138.23C90.8 138.7 91.27 140.39 90.64 142Z" fill="#F09959" fill-opacity="1.000000" fill-rule="nonzero"/>
	<path id="Path 508" d="M95.87 138.44C95.87 138.44 98.42 147.22 101.95 147.67C105.48 148.12 128.05 149.42 122.28 173.11C118.27 189.58 111.16 192.33 118.36 198.38C124.36 203.42 131.45 197.11 131.45 197.11C131.45 197.11 134.92 215.93 120.9 215.69C106.88 215.45 100.19 200.71 105.9 187.19C111.61 173.67 100.3 170.21 99.83 162.61C99.48 158.62 99.48 154.6 99.83 150.61L95.87 145.89L95.87 138.44Z" fill="#0F2D5C" fill-opacity="1.000000" fill-rule="nonzero"/>
	<path id="Path 510" d="M307.48 89.28C307.48 92.07 306.37 94.76 304.39 96.73C302.41 98.71 299.73 99.82 296.94 99.82C294.14 99.82 291.46 98.71 289.49 96.73C287.51 94.76 286.4 92.07 286.4 89.28C286.4 86.49 287.51 83.8 289.49 81.83C291.46 79.85 294.14 78.74 296.94 78.74C299.73 78.74 302.41 79.85 304.39 81.83C306.37 83.8 307.48 86.49 307.48 89.28Z" fill="#F37168" fill-opacity="1.000000" fill-rule="nonzero"/>
	<path id="Path 511" d="M296.84 85.58C296.84 85.58 293.16 82.33 290.55 85.45C286.98 89.73 296.84 95.17 296.84 95.17C296.84 95.17 306.87 89.56 303.36 85.23C300.71 81.95 296.84 85.58 296.84 85.58Z" fill="#FFFFFF" fill-opacity="1.000000" fill-rule="nonzero"/>
	<path id="Ellipse 6" d="M288.17 61.39C288.17 66.01 284.43 69.75 279.81 69.75C275.2 69.75 271.45 66.01 271.45 61.39C271.45 56.77 275.2 53.03 279.81 53.03C284.43 53.03 288.17 56.77 288.17 61.39Z" fill="#F37168" fill-opacity="1.000000" fill-rule="evenodd"/>
	<path id="Path 512" d="M279.73 58.45C279.73 58.45 276.81 55.88 274.75 58.35C271.91 61.75 279.73 66.07 279.73 66.07C279.73 66.07 287.7 61.61 284.91 58.18C282.8 55.58 279.73 58.45 279.73 58.45Z" fill="#FFFFFF" fill-opacity="1.000000" fill-rule="nonzero"/>
	<path id="Ellipse 7" d="M307.48 32.26C307.48 37.01 303.63 40.85 298.89 40.85C294.14 40.85 290.3 37.01 290.3 32.26C290.3 27.52 294.14 23.67 298.89 23.67C303.63 23.67 307.48 27.52 307.48 32.26Z" fill="#F37168" fill-opacity="1.000000" fill-rule="evenodd"/>
	<path id="Path 513" d="M298.8 29.24C298.8 29.24 295.8 26.6 293.68 29.14C290.76 32.63 298.8 37.07 298.8 37.07C298.8 37.07 306.98 32.49 304.12 28.96C301.96 26.29 298.8 29.24 298.8 29.24Z" fill="#FFFFFF" fill-opacity="1.000000" fill-rule="nonzero"/>
	<path id="Path 514" d="M287.66 5.68C287.66 7.19 287.06 8.64 285.99 9.71C284.92 10.77 283.48 11.37 281.97 11.37C280.46 11.37 279.01 10.77 277.95 9.71C276.88 8.64 276.28 7.19 276.28 5.68C276.28 4.17 276.88 2.73 277.95 1.66C279.01 0.59 280.46 0 281.97 0C283.48 0 284.92 0.59 285.99 1.66C287.06 2.73 287.66 4.17 287.66 5.68Z" fill="#F37168" fill-opacity="1.000000" fill-rule="nonzero"/>
	<path id="Path 515" d="M281.91 3.68C281.91 3.68 279.93 1.93 278.52 3.62C276.59 5.93 281.91 8.86 281.91 8.86C281.91 8.86 287.33 5.83 285.44 3.49C284 1.73 281.91 3.68 281.91 3.68Z" fill="#FFFFFF" fill-opacity="1.000000" fill-rule="nonzero"/>
	<path id="Ellipse 5" d="M100.87 98.22C104.98 102.33 104.98 109 100.87 113.12C96.75 117.23 90.08 117.23 85.96 113.12C81.85 109 81.85 102.33 85.96 98.22C90.08 94.1 96.75 94.1 100.87 98.22Z" fill="#F37168" fill-opacity="1.000000" fill-rule="evenodd"/>
	<path id="Path 509" d="M93.31 101.96C93.31 101.96 89.63 98.72 87.03 101.84C83.45 106.12 93.31 111.56 93.31 111.56C93.31 111.56 103.35 105.94 99.84 101.61C97.18 98.34 93.31 101.96 93.31 101.96Z" fill="#FFFFFF" fill-opacity="1.000000" fill-rule="nonzero"/>
	<path id="Ellipse 8" d="M105.66 69.5C107.35 73.61 105.39 78.32 101.28 80.01C97.16 81.7 92.46 79.74 90.77 75.62C89.08 71.51 91.04 66.81 95.15 65.12C99.26 63.43 103.97 65.39 105.66 69.5Z" fill="#F37168" fill-opacity="1.000000" fill-rule="evenodd"/>
	<path id="Path 516" d="M98.14 69.73C98.14 69.73 95.33 67.25 93.34 69.63C90.61 72.9 98.14 77.06 98.14 77.06C98.14 77.06 105.81 72.77 103.12 69.46C101.09 66.96 98.14 69.73 98.14 69.73Z" fill="#FFFFFF" fill-opacity="1.000000" fill-rule="nonzero"/>
	<path id="Ellipse 9" d="M81.61 48.1C81.61 51.86 78.57 54.9 74.81 54.9C71.05 54.9 68.01 51.86 68.01 48.1C68.01 44.35 71.05 41.3 74.81 41.3C78.57 41.3 81.61 44.35 81.61 48.1Z" fill="#F37168" fill-opacity="1.000000" fill-rule="evenodd"/>
	<path id="Path 517" d="M74.74 45.71C74.74 45.71 72.37 43.62 70.69 45.63C68.38 48.39 74.74 51.91 74.74 51.91C74.74 51.91 81.22 48.28 78.96 45.49C77.24 43.38 74.74 45.71 74.74 45.71Z" fill="#FFFFFF" fill-opacity="1.000000" fill-rule="nonzero"/>
	<path id="Path 518" d="M270.19 183.3L166.56 183.3C165.31 183.3 164.11 182.84 163.18 182.01C162.25 181.19 161.65 180.04 161.51 178.8L150.2 79.51C150.12 78.8 150.19 78.08 150.4 77.4C150.62 76.72 150.98 76.09 151.46 75.55C151.93 75.02 152.52 74.59 153.17 74.3C153.82 74.01 154.53 73.86 155.24 73.86L258.87 73.86C260.12 73.86 261.32 74.32 262.25 75.15C263.18 75.98 263.78 77.12 263.92 78.36L275.23 177.65C275.31 178.36 275.24 179.08 275.03 179.76C274.81 180.44 274.45 181.07 273.97 181.61C273.5 182.14 272.91 182.57 272.26 182.86C271.61 183.15 270.9 183.3 270.19 183.3Z" fill="#430A56" fill-opacity="1.000000" fill-rule="nonzero"/>
	<path id="Path 519" d="M223.52 95.38C227.89 104.13 224.27 114.21 215.67 117.77C207 121.35 197.53 119.31 193.16 110.57C188.78 101.82 192.03 91.32 200.42 87.13C208.8 82.94 219.14 86.63 223.52 95.38Z" fill="#FFC34E" fill-opacity="1.000000" fill-rule="nonzero"/>
	<path id="Path 520" d="M199.94 118.86C198.96 118.86 197.05 118.51 194.62 116.36C192.48 114.32 191.07 111.64 190.59 108.73C189.83 104.75 190.33 100.19 192.07 95.15C192.09 95.09 192.12 95.04 192.17 94.99C192.21 94.94 192.26 94.9 192.32 94.87C192.37 94.85 192.44 94.83 192.5 94.83C192.56 94.82 192.63 94.83 192.69 94.85C192.75 94.87 192.81 94.91 192.85 94.95C192.9 94.99 192.94 95.04 192.97 95.1C193 95.16 193.01 95.22 193.02 95.28C193.02 95.35 193.01 95.41 192.99 95.47C191.3 100.34 190.82 104.74 191.55 108.55C191.99 111.25 193.29 113.73 195.27 115.63C198.32 118.33 200.36 117.85 200.38 117.84C200.5 117.81 200.64 117.82 200.75 117.89C200.86 117.95 200.94 118.06 200.98 118.18C201 118.25 201 118.31 200.99 118.37C200.99 118.44 200.97 118.5 200.94 118.55C200.9 118.61 200.86 118.66 200.81 118.7C200.76 118.74 200.71 118.77 200.64 118.78C200.41 118.84 200.17 118.86 199.94 118.86Z" fill="#FFC34E" fill-opacity="1.000000" fill-rule="nonzero"/>
	<path id="Path 521" d="M244.81 130.98C244.81 130.98 242.61 130.21 241.44 125.41C240.84 122.94 242.44 118.67 243.77 117.34C242.91 114.87 239.57 105.66 241.04 105.67C242.52 105.67 245.84 115.87 245.84 115.87C245.84 115.87 247.64 106.4 248.77 106.53C249.91 106.66 248.77 116.4 248.77 116.4C248.77 116.4 252.81 117.08 254.04 120.74C255.28 124.39 251.42 130.12 251.42 130.92C251.42 131.72 250.97 134.28 250.97 134.28L244.64 133.28L244.81 130.98Z" fill="#E38540" fill-opacity="1.000000" fill-rule="nonzero"/>
	<path id="Path 522" d="M249.78 116.09C250.85 116.3 251.81 116.87 252.5 117.72C252.98 117.91 253.39 118.24 253.67 118.68C253.95 119.11 254.08 119.63 254.05 120.14C253.99 121.03 251.77 124.04 250.28 125.23C248.44 126.68 247.55 125.28 247.98 124.81C248.4 124.34 247.11 124.34 246.58 123.74C246.04 123.14 248.24 118.9 248.58 117.72C248.91 116.54 249.17 116.01 249.78 116.09Z" fill="#F09959" fill-opacity="1.000000" fill-rule="nonzero"/>
	<path id="Path 523" d="M246.49 122.88C249.58 123.41 251.98 123.28 251.84 122.41C251.71 121.54 248.83 120.19 248.04 119.69C247.26 119.2 246.49 122.88 246.49 122.88Z" fill="#E38540" fill-opacity="1.000000" fill-rule="nonzero"/>
	<path id="Path 524" d="M246.44 125.48C248.14 128.69 246.11 131.35 244.81 130.98C243.51 130.61 241.58 127.68 241.31 124.28C241.03 120.88 241.24 120.81 242.51 119.08C243.78 117.34 247.38 119.01 248.38 119.98C249.38 120.94 251.51 121.81 250.58 122.41C249.64 123.01 246.98 122.41 246.01 122.01C245.03 121.61 245.11 122.61 244.64 123.08C244.18 123.55 245.24 123.21 246.44 125.48Z" fill="#F09959" fill-opacity="1.000000" fill-rule="nonzero"/>
	<path id="Path 525" d="M213.31 129.43C224.36 135.48 237.5 165.04 237.5 165.04C237.5 165.04 240.92 138.61 243.97 132.68C244.76 131.16 250.97 132.21 251.97 133.74C252.97 135.28 255.17 173.31 250.17 179.91C245.17 186.5 232.97 184.81 232.97 184.81L216.95 170.9L213.31 129.43Z" fill="#A8CEFF" fill-opacity="1.000000" fill-rule="nonzero"/>
	<path id="Path 526" d="M242.44 136.87C239.78 145.3 236.37 163.49 237.24 168.43C238.11 173.36 240.04 175.5 240.04 175.5C240.04 175.5 238.58 163.29 239.58 156.49C240.58 149.69 242.44 136.87 242.44 136.87Z" fill="#93BBF0" fill-opacity="1.000000" fill-rule="nonzero"/>
	<path id="Path 527" d="M231.13 183.22C236.76 182.63 241.53 182.1 240.37 182.1C237.77 182.1 225.7 175.14 226.7 168.36C227.7 161.59 227.83 148.15 224.5 142.22L223.38 139.74C219.78 134.82 217.16 131.54 213.31 129.43L216.95 170.9L231.13 183.22Z" fill="#93BBF0" fill-opacity="1.000000" fill-rule="nonzero"/>
	<path id="Path 528" d="M195.01 126.36C195.01 126.36 179.17 135.21 175.47 137.09C171.78 138.97 185.82 194.22 188.94 196.59C192.06 198.96 219.54 197 222.67 194.02C225.81 191.03 220.27 181.88 222.98 163.55C225.69 145.22 214.72 129.39 213.31 129.43C211.9 129.46 202.71 126.36 202.71 126.36L195.01 126.36Z" fill="#A8CEFF" fill-opacity="1.000000" fill-rule="nonzero"/>
	<path id="Path 529" d="M188.94 196.59C192.06 198.96 211.73 199.01 220.1 196.41C221.05 196.11 225.34 194.41 225.44 192.8C224.43 192.61 220.41 193.09 218.79 192.72C213.12 191.42 210.01 184.4 210.01 184.4C210.01 184.4 206.89 183.28 199.91 180.32C192.94 177.37 195.81 168.42 195.65 164.49C195.48 160.55 188.75 147.67 176.12 137.9L174.96 138.42C174.06 147.4 186.05 194.4 188.94 196.59Z" fill="#93BBF0" fill-opacity="1.000000" fill-rule="nonzero"/>
	<path id="Path 530" d="M174.23 138.13C166.6 162.53 155.78 190.21 157.5 190.21C159.23 190.21 203.04 191.98 204.77 190.51C206.49 189.04 206 183.38 205.75 182.64C205.51 181.9 180.84 177.52 180.84 177.52C180.84 177.52 184.09 171.19 185.32 158.82C186.55 146.45 175.68 133.5 174.23 138.13Z" fill="#A8CEFF" fill-opacity="1.000000" fill-rule="nonzero"/>
	<path id="Path 531" d="M200.81 105.16L194.66 127.62C194.66 127.62 205.05 143.84 207.9 142.4C210.76 140.96 206.3 129.22 206.3 127.62C206.3 126.03 210.76 109.57 210.76 109.57L200.81 105.16Z" fill="#F09959" fill-opacity="1.000000" fill-rule="nonzero"/>
	<path id="Path 532" d="M206.52 128.77C206.41 128.39 206.34 128.01 206.31 127.62C206.31 126.03 210.76 109.57 210.76 109.57L200.81 105.16L198.77 112.59C200.06 118.52 202.71 124.06 206.52 128.77Z" fill="#E38540" fill-opacity="1.000000" fill-rule="nonzero"/>
	<path id="Path 533" d="M223.81 104.79C224.98 111.3 224.21 119.95 218.42 122.15C212.64 124.35 205.67 120.15 202.86 112.75C200.05 105.36 202.46 97.59 208.25 95.39C214.03 93.19 222.41 97.01 223.81 104.79Z" fill="#F09959" fill-opacity="1.000000" fill-rule="nonzero"/>
	<path id="Path 534" d="M211.61 114.65C211.61 114.65 216.55 116.55 219.27 116.51C220.32 116.57 221.37 116.5 222.4 116.29C222.4 116.29 220.53 120.05 218.13 119.82C216.68 119.64 215.29 119.06 214.14 118.15C212.99 117.24 212.11 116.03 211.61 114.65Z" fill="#FFFFFF" fill-opacity="1.000000" fill-rule="nonzero"/>
	<path id="Path 535" d="M204.23 108.46C205.05 110.74 204.34 113.07 202.66 113.67C200.98 114.26 198.96 112.9 198.15 110.63C197.35 108.35 198.05 106.02 199.73 105.42C201.41 104.82 203.42 106.18 204.23 108.46Z" fill="#F09959" fill-opacity="1.000000" fill-rule="nonzero"/>
	<path id="Path 536" d="M223.88 96.61C221.91 111.89 203.34 109.92 203.34 109.92C203.34 109.92 199.51 104.89 197.78 107.53C196.06 110.17 200.17 92.03 210.83 91.46C214.33 91.27 223.88 96.61 223.88 96.61Z" fill="#FFC34E" fill-opacity="1.000000" fill-rule="nonzero"/>
	<path id="Ellipse 10" d="M205 90.14C205 95.36 200.5 99.58 194.94 99.58C189.39 99.58 184.89 95.36 184.89 90.14C184.89 84.93 189.39 80.71 194.94 80.71C200.5 80.71 205 84.93 205 90.14Z" fill="#FFC34E" fill-opacity="1.000000" fill-rule="evenodd"/>
	<path id="Ellipse 12" d="M167.87 59.59C167.87 75.33 155.11 88.09 139.37 88.09C123.63 88.09 110.87 75.33 110.87 59.59C110.87 43.85 123.63 31.09 139.37 31.09C155.11 31.09 167.87 43.85 167.87 59.59Z" fill="#0E3A82" fill-opacity="1.000000" fill-rule="evenodd"/>
	<path id="Path 538" d="M138.73 40.81C142.43 40.3 145.61 49.48 145.36 52.41C145.1 55.35 152.24 52.03 155.68 54.58C159.13 57.13 158.11 70.38 155.68 71.28C153.26 72.17 143.5 72.3 140.35 70.64C138.76 69.69 136.93 69.22 135.08 69.29L133.46 55.43C134.99 54.87 136.39 54.02 137.58 52.93C139.75 51.01 138.73 40.81 138.73 40.81ZM122.29 73.31C123.18 74.08 133.25 76.5 133.76 71.4C134.27 66.3 131.72 55.47 131.72 55.47C131.72 55.47 124.72 55.12 122.29 56.36C121.36 56.83 121.4 72.55 122.29 73.31L122.29 73.31Z" fill="#FFFFFF" fill-opacity="1.000000" fill-rule="nonzero"/>
	<path id="Ellipse 13" d="M282.91 277.82C282.91 286.06 276.24 292.74 268 292.74C259.76 292.74 253.08 286.06 253.08 277.82C253.08 269.58 259.76 262.9 268 262.9C276.24 262.9 282.91 269.58 282.91 277.82Z" fill="#C1C765" fill-opacity="1.000000" fill-rule="evenodd"/>
	<path id="Path 539" d="M260.88 285.73C258.68 272.55 268.77 272.23 268.77 272.23L268.77 268.32L276.76 276.31L269.06 284.01L269.06 279.54C269.06 279.54 265.19 279.71 263.73 281.82C262.26 283.94 260.88 285.73 260.88 285.73Z" fill="#FFFFFF" fill-opacity="1.000000" fill-rule="nonzero"/>
	<path id="Ellipse 18" d="M225.22 234.81C226.34 235.07 227.03 236.18 226.76 237.3C226.5 238.41 225.39 239.1 224.27 238.83C223.16 238.57 222.47 237.46 222.73 236.34C223 235.23 224.11 234.54 225.22 234.81Z" fill="#FFFFFF" fill-opacity="1.000000" fill-rule="evenodd"/>
	<path id="Ellipse 19" d="M225.22 244.12C226.34 244.38 227.03 245.5 226.76 246.61C226.5 247.72 225.39 248.41 224.27 248.15C223.16 247.89 222.47 246.77 222.73 245.66C223 244.55 224.11 243.86 225.22 244.12Z" fill="#FFFFFF" fill-opacity="1.000000" fill-rule="evenodd"/>
	<path id="Path 542" d="M219.06 241.64C219.06 241.91 219 242.18 218.9 242.43C218.79 242.68 218.64 242.91 218.45 243.1C218.26 243.29 218.03 243.44 217.78 243.55C217.53 243.65 217.26 243.71 216.99 243.71C216.44 243.71 215.91 243.49 215.52 243.1C215.13 242.71 214.91 242.18 214.91 241.64C214.91 241.09 215.13 240.56 215.52 240.17C215.91 239.78 216.44 239.56 216.99 239.56C217.26 239.56 217.53 239.62 217.78 239.72C218.03 239.83 218.26 239.98 218.45 240.17C218.64 240.36 218.79 240.59 218.9 240.84C219 241.09 219.06 241.36 219.06 241.64Z" fill="#FFFFFF" fill-opacity="1.000000" fill-rule="nonzero"/>
	<path id="Path 543" d="M224.75 246.94C224.61 246.94 224.47 246.9 224.35 246.83L216.58 242.33C216.46 242.26 216.36 242.16 216.29 242.04C216.22 241.92 216.18 241.79 216.18 241.65C216.18 241.51 216.21 241.38 216.28 241.25C216.35 241.13 216.44 241.03 216.56 240.96L224.33 236.14C224.51 236.03 224.72 235.99 224.93 236.04C225.13 236.09 225.31 236.22 225.43 236.4C225.54 236.58 225.57 236.8 225.52 237C225.47 237.21 225.35 237.39 225.17 237.5L218.54 241.61L225.15 245.44C225.24 245.5 225.32 245.57 225.38 245.65C225.44 245.73 225.49 245.83 225.52 245.93C225.55 246.03 225.55 246.14 225.54 246.24C225.52 246.35 225.49 246.45 225.44 246.54C225.37 246.66 225.27 246.76 225.15 246.83C225.02 246.9 224.89 246.94 224.75 246.94Z" fill="#FFFFFF" fill-opacity="1.000000" fill-rule="nonzero"/>
</svg>
